<?xml version="1.0" encoding="utf-8"?>
<!-- Generator: Adobe Illustrator 17.1.0, SVG Export Plug-In . SVG Version: 6.00 Build 0)  -->
<!DOCTYPE svg PUBLIC "-//W3C//DTD SVG 1.1//EN" "http://www.w3.org/Graphics/SVG/1.1/DTD/svg11.dtd">
<svg version="1.1" id="レイヤー_1" xmlns="http://www.w3.org/2000/svg" xmlns:xlink="http://www.w3.org/1999/xlink" x="0px"
	 y="0px" viewBox="0 0 283.486 314.984" enable-background="new 0 0 283.486 314.984" xml:space="preserve">
<g>
	<path d="M244.438,171.894c-1.225-2.826-3.55-6.278-7.673-6.673c-3.156-0.302-6.546,1.3-10.077,4.764
		c-2.332,2.287-3.944,4.63-4.012,4.729c-0.977,1.427-0.611,3.374,0.815,4.353c1.426,0.978,3.376,0.615,4.357-0.81
		c0.014-0.02,1.384-2.001,3.296-3.862c2.002-1.948,3.883-3.045,5.024-2.933c1.136,0.11,2.065,1.88,2.518,2.925
		c2.273,5.246,4.991,12.005,5.835,17.754c1.116,7.605-1.71,9.539-2.639,10.175c-3.992,2.731-8.693,5.827-13.294,8.077
		c-6.072,2.97-9.314,3.131-10.965,2.742c-1.068-0.251-1.486-0.762-1.731-1.179c-1.118-1.903-0.469-5.495-0.157-6.594l-6.018-1.755
		c-0.203,0.696-1.907,6.934,0.755,11.499c1.232,2.113,3.209,3.542,5.716,4.132c0.906,0.213,1.869,0.32,2.893,0.32
		c3.383,0,7.428-1.169,12.262-3.533c4.962-2.427,9.902-5.677,14.08-8.535c4.636-3.172,6.42-8.642,5.301-16.259
		C249.772,184.753,246.865,177.495,244.438,171.894z"/>
	<path d="M218.42,204.72c0.017-0.009,1.751-0.862,6.007-0.862c2.441,0,3.812-1.12,4.533-2.059c2.149-2.799,1.057-6.883-0.208-11.612
		c-0.496-1.854-1.009-3.772-1.218-5.341c-0.229-1.716-1.806-2.922-3.521-2.693c-1.716,0.229-2.921,1.805-2.693,3.521
		c0.263,1.97,0.829,4.086,1.376,6.133c0.42,1.57,0.817,3.052,1.038,4.32c0.117,0.671,0.159,1.143,0.167,1.465
		c-5.629,0.079-8.151,1.421-8.61,1.697l3.225,5.375C218.517,204.665,218.486,204.686,218.42,204.72z"/>
	<path d="M82.168,218.439c0.002,0.049,0.001,0.073,0.001,0.073h-6.269c0,0.447,0.085,2.167,1.172,5.513
		c1.422,4.377,3.916,9.596,7.412,15.511c0.585,0.99,1.629,1.54,2.701,1.54c0.542,0,1.091-0.141,1.592-0.436
		c1.49-0.881,1.985-2.803,1.104-4.293C82.493,223.843,82.171,218.491,82.168,218.439z"/>
	<path d="M270.5,87.386c0,0,2.955-5.066-2.111-11.82s-12.242-12.664-12.242-12.664l7.176-1.266
		c-1.689-5.91-15.197-8.865-13.931-10.976c1.266-2.111,7.176,0.844,7.176,0.844s-4.644-10.554-11.82-13.509
		c-7.176-2.955-12.242,0-12.242,0c0-4.644-11.398-11.82-11.398-11.82s-7.599-11.398-14.775-11.398c-7.176,0-6.754,4.221-6.754,4.221
		s-6.332-4.221-9.287-6.754c-2.955-2.533-13.509-0.422-13.509-0.422s-6.269-4.179-12.538-4.597s-11.284,2.925-11.284,2.925
		s-3.343-2.925-7.941-0.836c-4.597,2.09-6.269,3.343-11.702,3.343s-13.374,4.179-13.374,4.179s-5.851-2.508-10.448,0.418
		c-4.597,2.925-2.925,7.105-2.925,7.105s-1.672,0-8.776,0s-14.209,3.761-19.642,8.776S71.05,46.092,66.87,49.853
		c-3.607,3.246-4.723,13.651-4.961,16.44c-6.182,7.713-18.057,23.212-22.182,33.367c-5.193,12.784-6.782,15.27-8.32,17.192
		c-0.579,0.723-1.138,1.876-1.651,3.234c-3.597,1.038-6.213,3.118-6.584,3.424c-1.006,0.828-1.495,2.13-1.284,3.416
		c0.004,0.024,0.01,0.047,0.014,0.071c-7.449-2.007-14.131-3.032-15.212,3.097c-1.254,7.105-1.254,28.001,6.269,40.539
		c2.8,4.667,4.905,8.291,6.941,10.938c-2.723,11.424-6.075,28.252-2.858,45.052c0.709,3.703,1.287,7.014,1.797,9.936
		c2.27,12.997,3.64,20.842,11.605,37.813c4.71,10.033,12.084,18.933,21.326,25.738c4.183,3.079,8.555,5.579,12.995,7.429
		c4.426,1.844,8.7,2.953,12.703,3.296c0.809,0.069,1.663,0.104,2.539,0.104c0.001,0,0.001,0,0.002,0
		c13.004,0,31.117-7.592,47.098-14.291c3.044-1.276,5.919-2.481,8.643-3.584c9.163-3.709,15.961-8.122,21.959-12.016
		c5.864-3.807,10.928-7.094,17.168-9.239c12.3-4.228,24.7-19.908,29.995-26.604c0.353-0.447,0.675-0.854,0.957-1.206
		c0.01,0,0.02,0,0.03,0c4.234,0,12.123-0.367,17.385-2.822c4.022-1.877,6.005-3.829,8.515-6.301
		c1.823-1.795,4.093-4.029,7.957-7.015c5.402-4.175,10.493-11.481,13.813-16.875c3.841-6.242,6.792-12.332,7.722-15.122
		c0.519-1.556,0.89-3.204,1.157-4.771c2.911-4.843,5.477-9.415,5.979-11.258c1.266-4.644,5.91-10.976,6.332-16.041
		s-1.266-17.308-1.266-17.308l2.955,4.644c0,0,0.844-6.332,0.844-13.509c0-7.176,1.266-18.152,1.266-26.595
		S270.5,87.386,270.5,87.386z M45.535,102.02c4.978-12.254,23.261-34.29,24.875-36.222c0.35-0.328,1.487-1.378,3.351-2.961
		l0.866,2.598c0.844-2.955,5.066-4.644,5.066-4.644l0.844,4.644c3.377-4.644,13.931-5.91,13.931-5.91l-5.066,5.91
		c3.799-2.955,14.353-6.754,14.353-6.754l-1.689,7.599c2.533-3.799,11.82-6.754,11.82-6.754l-2.955,8.865
		c2.955-5.488,16.464-8.443,16.464-8.443l-0.422,9.287c1.689-6.332,11.82-6.754,11.82-6.754c0,2.955,2.533,13.931,2.533,13.931
		s2.111-7.599,4.221-11.82c2.111-4.221,5.066-1.689,5.066-1.689l3.377,9.287c0.422-4.221,8.021-7.599,8.021-7.599l0.844,9.287
		l6.332-5.91c0,0,2.955,9.287,2.955,19.841s-20.263,30.394-20.263,30.394s12.242,8.443,21.529,10.976
		c9.287,2.533,12.664,11.82,12.242,17.73c-0.126,1.77-0.556,4.183-1.016,6.889c-13.153-0.631-30.177,0.097-33.343-0.298
		c-3.343-0.418-6.687-7.523-9.612-10.03c-2.925-2.508-10.866-10.448-38.867-10.866s-45.972,6.269-48.479,6.269
		c-0.741,0-2.798-0.731-5.554-1.825c0.779-0.671,1.273-1.664,1.273-2.772c0-0.546-0.119-1.063-0.334-1.528
		c-0.497-1.175-3.08-6.731-9.14-11.059c-1.129-0.806-2.342-1.391-3.629-1.752C38.671,117.614,40.63,114.093,45.535,102.02z
		 M88.685,188.378c0,0-3.867,0.418-12.852-3.762s-12.957-18.705-15.047-30.407c-2.09-11.702,7.523-13.793,7.523-13.793l12.826-3.079
		c-1.534,0.446-4.851,2.332-5.489,10.309C74.811,158.095,88.685,188.378,88.685,188.378z M81.52,137.246
		c0.248-0.046,0.396-0.047,0.396-0.047L81.52,137.246z M45.556,168.961c0-7.105,1.254-15.045,3.761-15.045
		c1.409,0,2.423,1.849,4.228,5.769c-0.949,1.418-4.285,6.386-8.142,11.956C45.506,170.723,45.556,169.824,45.556,168.961z
		 M11.257,134.461c0.418-0.836,4.389-3.448,4.389-3.448c-4.597,5.851,3.135,40.752,3.135,40.752
		C10.422,159.645,10.839,135.297,11.257,134.461z M235.884,222.901c-4.161,3.216-6.579,5.596-8.522,7.508
		c-2.323,2.287-3.724,3.667-6.768,5.087c-2.998,1.399-8.506,2.234-14.734,2.234c-0.855,0-1.373-0.018-1.377-0.018
		c-0.947-0.036-1.853,0.358-2.475,1.068c-0.476,0.544-1.137,1.38-2.052,2.537c-2.511,3.175-6.713,8.488-11.662,13.463
		c-5.807,5.837-11.006,9.572-15.455,11.101c-6.969,2.396-12.591,6.046-18.544,9.91c-6.043,3.923-12.292,7.98-20.898,11.463
		c-2.759,1.117-5.652,2.329-8.714,3.613c-14.672,6.15-32.933,13.805-44.676,13.804c-0.698,0-1.372-0.027-2.004-0.082
		c-6.887-0.59-15.095-4.063-22.517-9.528c-5.86-4.314-13.977-11.868-19.368-23.353c-7.61-16.212-8.925-23.746-11.105-36.228
		c-0.514-2.945-1.097-6.283-1.816-10.036c-2.697-14.084-0.34-28.524,2.061-39.23c1.996,0.886,4.317,1.113,7.342,0.719
		c0.73-0.095,1.424-0.239,2.083-0.426c-0.265,0.341-0.522,0.667-0.77,0.976c-4.183,5.229-6.935,9.615-8.414,13.41
		c-0.985,2.529-1.429,4.88-1.32,6.988c0.134,2.579,1.067,4.823,2.773,6.671c5.697,6.172,14.826,7.603,15.212,7.66
		c0.976,0.147,1.971-0.106,2.674-0.799c0.695-0.685,1.038-1.587,0.917-2.553c-0.002-0.186,0.036-0.652,0.236-1.057
		c0.109-0.221,0.399-0.807,1.75-1.032c1.842-0.307,3.427-0.81,4.7-1.214c1.038-0.329,2.018-0.64,2.606-0.664
		c0.212-0.008,0.234-0.009,0.41,0.166c0.394,0.394,0.852,0.889,1.337,1.412c2.746,2.966,6.507,7.028,11.328,7.028
		c3.058,0,5.996-2.239,8.272-6.305c1.703-3.04,2.803-6.717,2.803-9.368c0-3.015-1.944-6.589-5.072-9.329
		c-3.324-2.91-7.339-4.298-11.014-3.809c-1.716,0.229-2.921,1.805-2.693,3.521c0.229,1.716,1.805,2.921,3.521,2.693
		c1.884-0.252,4.092,0.591,6.056,2.311c2.023,1.771,2.933,3.763,2.933,4.612c0,1.355-0.688,3.956-2.003,6.305
		c-1.324,2.364-2.518,3.099-2.803,3.099c-2.081,0-4.878-3.02-6.728-5.018c-0.527-0.569-1.024-1.107-1.504-1.586
		c-1.405-1.405-3.12-2.077-5.095-1.997c-1.429,0.058-2.799,0.492-4.249,0.952c-1.196,0.379-2.433,0.772-3.835,1.006
		c-3.046,0.508-5.335,2.179-6.471,4.717c-2.521-0.777-6.176-2.292-8.681-5.005c-1.889-2.046-1.029-5.05-0.218-7.132
		c1.245-3.195,3.687-7.044,7.468-11.77c5.036-6.294,13.625-18.856,17.807-25.046c0.897,1.894,1.933,4.014,3.149,6.371
		c6.687,12.956,12.12,20.06,35.523,22.986s40.539-0.418,44.718-3.343c4.179-2.925,6.269-15.045,10.448-15.463
		c3.196-0.32,20.321-3.327,33.437-5.286c0.137,0.51,0.3,1,0.491,1.465c2.955,7.176,1.689,16.041,1.689,20.263
		s3.377,8.865,3.377,8.865c4.256-5.417,15.605-29.275,22.67-35.168c4.342-1.01,7.294-1.84,7.294-1.84l0.293-0.088
		c3.105,0.384,4.781,2.059,4.781,2.059l12.897-7.404c0,0,12.854-0.617,19.608,10.781c1.171,1.977,1.809,4.347,2.064,6.915
		c-1.142,3.033-1.932,4.774-1.952,4.817c-0.188,0.409-0.285,0.856-0.286,1.306c0,0.058-0.026,5.841-1.511,10.295
		C253.739,198.579,244.358,216.353,235.884,222.901z"/>
	<path d="M47.646,238.754c-3.343-1.254-3.343,1.463-6.269,2.09c-2.925,0.627-4.388-3.343-7.941-1.672c-3.552,1.672,0,8.15,0,8.15
		s1.881,0.836,3.552,2.09c1.672,1.254,5.394,6.535,11.453,7.162c6.06,0.627,18.01-1.102,20.936-1.938s9.194-1.672,9.194-1.672
		s-5.642-1.254-13.165-3.97C57.885,246.277,50.989,240.008,47.646,238.754z"/>
</g>
</svg>
