<?xml version="1.0" encoding="utf-8"?>
<!-- Generator: Adobe Illustrator 17.1.0, SVG Export Plug-In . SVG Version: 6.00 Build 0)  -->
<!DOCTYPE svg PUBLIC "-//W3C//DTD SVG 1.1//EN" "http://www.w3.org/Graphics/SVG/1.1/DTD/svg11.dtd">
<svg version="1.1" id="レイヤー_1" xmlns="http://www.w3.org/2000/svg" xmlns:xlink="http://www.w3.org/1999/xlink" x="0px"
	 y="0px" viewBox="0 0 595.28 841.89" enable-background="new 0 0 595.28 841.89" xml:space="preserve">
<path fill="none" stroke="#040000" stroke-width="15" stroke-linecap="round" stroke-miterlimit="10" d="M195.498,886.738
	l-82.517-236.226l-33.168-82.517c0,0-33.168-0.809-41.259-41.259s-10.517-48.539-13.752-58.247
	c-3.236-9.708-13.752-31.551-5.663-54.203c8.09-22.652,14.562-30.741,24.27-30.741s9.708,3.236,9.708,3.236
	s6.472-110.831,66.338-174.742s144.809-90.607,231.372-65.528s152.09,67.146,179.596,148.855
	c27.506,81.708,15.371,149.663,12.944,172.315c-2.427,22.652-11.326,76.854-25.887,124.585
	c-14.562,47.731-50.157,124.585-75.236,155.326c-25.079,30.741-112.854,88.18-112.854,88.18"/>
<path fill="#040000" stroke="#040000" stroke-width="15" stroke-linecap="round" stroke-miterlimit="10" d="M135.633,445.029
	c0,0,41.259-101.124,56.63-146.428c15.37-45.303,34.786-51.775,34.786-51.775l53.393-8.09c0,0,98.697,84.135,121.349,99.506
	c22.652,15.371,32.36,21.033,32.36,21.033l-19.416-21.843c0,0,37.214,25.887,55.011,36.405
	c17.798,10.517,58.247,59.057,58.247,63.911s4.045-36.405,4.045-36.405l12.135,74.427l7.281-21.843l7.281,7.281V443.41l4.854-0.809
	c0,0,17.798-71.192,23.46-98.697c5.663-27.506-13.752-104.36-33.978-155.326c-20.225-50.966-25.887-41.259-35.595-56.63
	c-9.708-15.371-28.314-47.729-51.775-57.437c-23.46-9.708-45.303-18.606-45.303-18.606s11.326-10.517,33.978-4.854
	s33.978,21.033,33.978,21.033s-8.09-19.416-38.832-29.933s-60.674-12.135-60.674-12.135s-26.697-19.416-48.54-18.606
	s-63.101,20.225-63.101,20.225s11.325-15.371,21.843-17.798c0,0-40.449,13.752-60.674,32.36s-22.652,21.843-22.652,21.843
	s1.618-33.978,27.506-42.068s-23.46-2.427-33.168,24.27s-9.708,26.697-9.708,26.697s-9.708-12.944-59.865-12.944
	S73.34,79.365,52.307,108.488c0,0,42.876-28.314,72-28.314s28.314,8.09,28.314,8.09s-52.584-11.325-95.461,31.551
	c0,0,33.168-7.281,45.303-8.899c0,0-63.911,35.595-75.236,78.473s-7.281,65.528-11.325,95.461
	c-4.045,29.933,1.618,91.416,1.618,91.416l8.09-12.135l1.618,30.741c0,0,17.798-19.416,29.933-3.236
	c12.135,16.179,16.989,28.314,16.989,28.314s3.236,73.619,3.236,98.697c0,25.078,12.944,62.292,12.944,62.292l8.09-40.449
	c0,0-3.236-82.517,0-114.068s16.989-97.888,25.887-119.731s17.798-28.314,17.798-28.314s-19.416,118.922-17.798,156.136
	l12.944-59.866L135.633,445.029z"/>
<path fill="none" stroke="#040000" stroke-width="15" stroke-linecap="round" stroke-miterlimit="10" d="M258.6,700.67
	c0,0,16.989,1.618,37.214-7.281c20.225-8.898,25.079-8.898,32.36-8.898c7.281,0,8.899,6.472,16.179,6.472
	c7.281,0,6.472-9.708,16.179-9.708c9.708,0,39.641,11.325,39.641,11.325"/>
<path fill="none" stroke="#040000" stroke-width="15" stroke-linecap="round" stroke-miterlimit="10" d="M304.712,700.67
	c0,0,11.326,0.809,18.606,0.809c7.281,0,12.944,4.045,17.798,4.045s18.606-6.471,25.079-6.471"/>
<path fill="none" stroke="#040000" stroke-width="15" stroke-linecap="round" stroke-miterlimit="10" d="M276.398,710.378
	c0,0,33.168,25.887,57.438,27.506s47.73-8.09,57.438-24.27"/>
<path fill="none" stroke="#040000" stroke-width="13" stroke-linecap="round" stroke-miterlimit="10" d="M217.178,474.214
	c0,0,0.297,9.891,13.107,16.32c31.496,15.808,65.528,7.888,65.528,7.888s-7.281-25.079-33.168-28.314
	c-25.887-3.236-67.146,9.708-67.146,9.708L217.178,474.214z"/>
<path fill="none" stroke="#040000" stroke-width="15" stroke-linecap="round" stroke-miterlimit="10" d="M294.195,479.816
	c0,0-18.606-24.27-90.607-11.326"/>
<path fill="#040000" d="M244.24,479.816c0,0,3.276,18.763,16.096,19.671c12.819,0.906,20.787-21.912,20.787-21.912
	s-11.742-11.406-36.883-7.588C244.24,469.985,243.835,473.545,244.24,479.816z"/>
<path fill="#040000" d="M429.095,484.871c0,0-5.258,24.067,13.752,25.686c19.012,1.618,16.989-26.899,11.731-28.517
	C454.578,482.04,438.196,479.816,429.095,484.871z"/>
<path fill="none" stroke="#040000" stroke-width="13" stroke-linecap="round" stroke-miterlimit="10" d="M398.555,506.107
	c0,0,28.921-44.696,75.64-15.573c0,0-15.249,20.832-30.883,22.045C427.677,513.793,419.387,502.265,398.555,506.107z"/>
<path fill="none" stroke="#040000" stroke-width="15" stroke-linecap="round" stroke-miterlimit="10" d="M403.409,491.95
	c0,0,20.577-25.458,77.663-7.078"/>
<path fill="#040000" stroke="#040000" stroke-width="15" stroke-linecap="round" stroke-miterlimit="10" d="M318.06,443.006
	c0,0-12.396,10.921-35.929,2.023c-23.532-8.898-40.521-21.033-62.768-21.033s-49.349,7.685-49.349,7.685s29.528-24.27,56.63-20.629
	c27.102,3.64,43.428,13.348,54.478,16.179C292.173,430.063,318.06,443.006,318.06,443.006z"/>
<path fill="#040000" stroke="#040000" stroke-width="15" stroke-linecap="round" stroke-miterlimit="10" d="M398.555,458.781
	c0,0,9.992,2.427,29.872,0s44.15-25.079,55.072-18.202c10.921,6.877,22.247,10.921,22.247,10.921s-23.46-21.843-38.427-17.393
	c-14.966,4.45-45.303,9.379-54.607,12.578C403.409,449.882,398.555,458.781,398.555,458.781z"/>
<path fill="none" stroke="#040000" stroke-width="15" stroke-linecap="round" stroke-miterlimit="10" d="M367.813,451.5
	c0,0,8.898,63.505,9.304,72c0.404,8.494-0.404,25.079,3.236,38.832c3.64,13.752,12.944,41.259,12.944,50.562
	c0,9.304-10.921,20.225-16.989,20.225c-6.067,0-8.494-2.023-8.494-2.023s-10.517,12.944-24.674,9.708
	c-14.159-3.235-18.609-19.82-33.575-19.82c-14.966,0-6.472,15.371-6.472,15.371s-20.486,2.023-20.962-17.798
	c-0.476-19.82,12.063-42.068,12.063-42.068"/>
<path fill="none" stroke="#040000" stroke-width="15" stroke-linecap="round" stroke-miterlimit="10" d="M239.184,673.164
	c0,0,41.259-83.124,47.933-92.225"/>
<path fill="none" stroke="#040000" stroke-width="15" stroke-linecap="round" stroke-miterlimit="10" d="M304.712,469.588
	c0,0,17.596,16.092,6.674,36.115s-43.079,35.798-43.079,35.798"/>
<path fill="none" stroke="#040000" stroke-width="15" stroke-linecap="round" stroke-miterlimit="10" d="M393.297,585.793
	c0,0,16.989,57.034,24.876,73.416"/>
<path fill="none" stroke="#040000" stroke-width="15" stroke-linecap="round" stroke-miterlimit="10" d="M49.88,520.871
	c0,0-16.989-48.001-18.202-61.012c-1.213-13.011-8.494-35.599,0-49.181c8.494-13.583,7.888-11.156,18.202,6.44
	C60.194,434.714,68.082,451.5,68.082,451.5"/>
<path fill="none" stroke="#040000" stroke-width="15" stroke-linecap="round" stroke-miterlimit="10" d="M68.082,499.512
	c0,0-21.655-3.677-20.232-27.26c1.423-23.583,8.704-18.19,16.592-12.392"/>
</svg>
