<?xml version="1.0" encoding="utf-8"?>
<!-- Generator: Adobe Illustrator 17.1.0, SVG Export Plug-In . SVG Version: 6.00 Build 0)  -->
<!DOCTYPE svg PUBLIC "-//W3C//DTD SVG 1.1//EN" "http://www.w3.org/Graphics/SVG/1.1/DTD/svg11.dtd">
<svg version="1.1" id="レイヤー_1" xmlns="http://www.w3.org/2000/svg" xmlns:xlink="http://www.w3.org/1999/xlink" x="0px"
	 y="0px" viewBox="0 0 349.483 479.976" enable-background="new 0 0 349.483 479.976" xml:space="preserve">
<g>
	<path fill="#040000" d="M112.688,230.572c2.911-4.367,1.78-8.812-0.502-11.095l-0.214-0.215c-3.466-3.493-7.072-5.782-24.922-5.782
		c-19.425,0-35.783,14.893-36.469,15.527c-1.606,1.482-1.732,3.975-0.285,5.613c0.793,0.897,1.899,1.357,3.012,1.357
		c0.918,0,1.84-0.313,2.593-0.951c0.661-0.559,5.223-3.348,30.216-3.348c12.018,0,22.87,0.669,22.978,0.675
		C110.52,232.445,111.893,231.764,112.688,230.572z"/>
	<path fill="#040000" d="M161.707,230.054c4.095,0,10.395-1.997,17.689-4.309c6.257-1.983,13.348-4.231,16.72-4.231
		c8.557,0,33.346,4.702,33.596,4.749c1.687,0.322,3.389-0.464,4.239-1.953c0.851-1.489,0.663-3.355-0.469-4.644
		c-4.883-5.562-13.007-8.966-18.962-10.841c-7.665-2.415-16.201-3.744-24.037-3.744c-5.567,0-10.384,0.665-14.318,1.976
		c-16.095,5.365-20.393,16.396-20.569,16.863c-0.507,1.352-0.249,2.873,0.675,3.982C157.462,229.33,159.291,230.054,161.707,230.054
		z"/>
	<path fill="#040000" d="M102.354,254.153c-4.659-3.517-11.025-5.3-18.921-5.3c-14.095,0-28.581,5.642-29.191,5.882
		c-1.974,0.778-3.003,2.957-2.35,4.975c0.547,1.691,2.117,2.781,3.82,2.781c0.33,0,0.666-0.041,1-0.127
		c4.083-1.047,15.687-1.523,24.741-1.523c7.051,0,18.177,0.526,18.289,0.531c1.765,0.086,3.369-0.989,3.969-2.646
		C104.311,257.068,103.761,255.214,102.354,254.153z"/>
	<path fill="#040000" d="M232.728,241.203c0.605,1.612,2.136,2.608,3.762,2.608c0.468,0,0.945-0.083,1.41-0.257
		c5.802-2.176,11.41-12.144,12.991-15.147c1.033-1.963,0.279-4.391-1.683-5.424c-1.962-1.034-4.391-0.281-5.426,1.681
		c-2.839,5.382-6.906,10.694-8.703,11.368C233.001,236.81,231.949,239.126,232.728,241.203z"/>
	<path fill="#040000" d="M251.947,238.848c-1.853-1.215-4.341-0.698-5.56,1.151c-0.079,0.12-7.996,11.916-19.36,12.039
		c-2.247-4.113-8.722-10.066-27.371-10.481c-0.486-0.011-0.962-0.016-1.436-0.016c-25.086,0-33.909,14.786-34.272,15.416
		c-0.886,1.536-0.661,3.472,0.555,4.763c0.778,0.826,1.844,1.263,2.926,1.263c0.609,0,1.224-0.138,1.795-0.424
		c0.168-0.084,0.428-0.219,0.766-0.395c9.818-5.113,13.851-5.877,15.381-5.877c1.162,0,2.344,0.024,3.596,0.049
		c1.384,0.028,2.815,0.057,4.367,0.057c3.225,0,7.702-0.108,13.748-0.947c0.763-0.106,1.551-0.16,2.342-0.16
		c6.814,0,12.364,3.943,12.406,3.973c1.058,0.776,2.412,0.971,3.631,0.569c0.433,0.16,0.899,0.251,1.387,0.251
		c15.853,0,25.846-15.042,26.263-15.682C254.321,242.542,253.798,240.063,251.947,238.848z"/>
	<path fill="#040000" d="M243.72,271.512c-0.893-0.281-22.02-6.86-34.746-5.588c-10.978,1.1-22.268-2.769-22.381-2.809
		c-2.093-0.73-4.383,0.373-5.115,2.466c-0.733,2.094,0.37,4.386,2.465,5.119c0.526,0.184,13.039,4.498,25.83,3.218
		c11.086-1.106,31.335,5.195,31.539,5.258c0.4,0.126,0.805,0.186,1.204,0.186c1.709,0,3.293-1.099,3.832-2.815
		C247.012,274.431,245.836,272.177,243.72,271.512z"/>
	<path fill="#040000" d="M201.155,321.478c-9.24-8.849-18.565-13.406-18.957-13.596c-1.653-0.798-3.58-0.359-4.743,0.947
		c-4.755-6.803-12.111-10.86-12.567-11.106c-1.947-1.055-4.379-0.332-5.438,1.614c-1.059,1.946-0.339,4.384,1.605,5.447
		c0.033,0.018,3.329,1.835,6.527,4.867c2.663,2.524,5.838,6.462,5.838,10.887c0,8.235-9.898,13.065-11.837,13.46
		c-1.309,0.04-2.825,0.49-5.263,1.215c-4.317,1.283-11.541,3.431-21.383,4.218c-11.328,0.904-15.411-1.881-16.001-2.341
		c-0.42-0.561-0.786-0.726-1.47-1c-0.125-0.05-12.539-5.236-12.539-13.142c0-8.289,8.706-13.318,8.78-13.36
		c1.159-0.643,1.925-1.817,2.049-3.137c0.017-0.188,1.82-18.943,7.011-33.362c6.248-17.356-4.206-27.38-4.654-27.798
		c-1.622-1.514-4.164-1.427-5.678,0.196c-1.514,1.622-1.426,4.164,0.196,5.678c0.071,0.066,7.051,6.773,2.577,19.203
		c-4.575,12.709-6.627,28.011-7.243,33.381c-0.519,0.367-1.122,0.82-1.771,1.354c-0.846-0.099-1.729,0.065-2.518,0.534
		c-26.775,15.937-30.139,52.194-30.27,53.73c-0.187,2.209,1.451,4.15,3.66,4.34c0.117,0.01,0.232,0.015,0.348,0.015
		c2.062,0,3.817-1.58,3.998-3.672c0.007-0.086,0.785-8.653,4.515-18.827c2.155-5.877,5.618-13.097,11-19.403
		c-0.021,0.372-0.034,0.747-0.034,1.128c0,11.999,13.504,18.788,16.864,20.291c1.842,1.543,6.637,4.409,16.857,4.408
		c1.529,0,3.183-0.064,4.964-0.207c10.683-0.854,18.414-3.152,23.032-4.525c1.297-0.386,2.764-0.822,3.252-0.886
		c4.842-0.098,19.594-7.944,19.594-21.491c0-1.458-0.182-2.86-0.505-4.202c3.124,1.793,9.042,5.54,14.81,11.1
		c10.822,10.431,16.079,22.05,15.625,34.534c-0.081,2.217,1.651,4.08,3.869,4.161c0.05,0.002,0.099,0.003,0.149,0.003
		c2.151,0,3.933-1.704,4.012-3.871C219.949,347.533,213.635,333.43,201.155,321.478z"/>
	<path fill="#040000" d="M200.888,356.187c-1.051,0.004-25.888,0.141-38.844,3.226l-0.423,0.1
		c-6.741,1.606-11.612,2.766-16.368,2.766c-3.965,0-7.683-0.821-12.053-2.661c-3.311-1.394-7.575-2.071-13.038-2.071
		c-12.312,0-26.288,3.539-26.877,3.69c-1.32,0.338-2.378,1.321-2.812,2.612c-0.434,1.292-0.184,2.715,0.664,3.781
		c0.885,1.112,21.833,27.318,36.36,34.265c3.337,1.596,5.496,2.71,6.924,3.447c2.651,1.368,3.861,1.992,5.937,1.992
		c0.477,0,0.954-0.034,1.506-0.073c0.911-0.064,2.16-0.153,4.238-0.153c10.234,0,28.393-4.997,36.724-16.105l21.292-28.389
		c0.915-1.22,1.06-2.852,0.375-4.214C203.81,357.038,202.396,356.178,200.888,356.187z M166.766,378.33
		c-8.376,3.722-11.48,4.667-20.466,4.667c-2.187,0-4.806-0.058-8.49-0.19c-9.397-0.335-19.348-7.259-25.507-12.422
		c1.385-0.1,2.737-0.149,4.066-0.149c6.251,0,11.04,1.122,15.672,2.208c4.462,1.046,9.076,2.126,14.664,2.126
		c8.067,0,22.043-2.421,32.826-4.563C175.41,373.286,170.779,376.546,166.766,378.33z"/>
	<path fill="#040000" d="M149.119,257.669c0.766,0,1.54-0.219,2.225-0.675c1.846-1.231,2.345-3.725,1.114-5.571
		c-4.139-6.209-0.139-11.474,0.347-12.073c1.41-1.693,1.193-4.211-0.492-5.637c-1.694-1.433-4.229-1.222-5.662,0.472
		c-2.968,3.508-6.972,12.556-0.878,21.696C146.547,257.041,147.821,257.669,149.119,257.669z"/>
	<path fill="#040000" d="M342.042,160.277c-0.645-7.269-1.312-14.785-1.508-21.83c-0.613-22.068-11.781-40.511-32.175-66.825
		c-14.17-18.283-33.361-27.601-50.293-35.822c-6.321-3.069-12.292-5.968-17.732-9.168c-15.358-9.034-32.994-14.216-48.384-14.216
		c-4.045,0-7.796,0.37-11.149,1.099c-6.537,1.421-18.937,1.571-30.929,1.716c-13.012,0.158-25.302,0.307-32.91,1.892
		c-15.762,3.284-30.166,9.954-53.241,33.029c-22.425,22.425-34.82,35.859-49.698,73.056c-15.527,38.817-0.838,89.56,4.692,108.663
		c5.105,17.636,14.241,35.671,18.533,43.662c-0.392,9.942-0.32,22.232,1.066,35.261c3.092,29.086,11.559,52.086,25.167,68.361
		c15.058,18.01,23.082,29.114,29.529,38.035c6.745,9.334,11.619,16.078,20.679,25.45c16.698,17.274,34.469,26.405,51.39,26.405
		c0,0,0,0,0,0c6.35,0,12.648-1.276,18.718-3.793c12.372-5.13,24.427-13.348,36.852-25.124
		c10.976-10.402,22.344-23.713,34.752-40.692c22.769-31.158,29.251-62.41,32.366-77.429l0.183-0.881
		c0.18-0.434,0.494-1.197,0.916-2.245c0.774,0.164,1.592,0.251,2.459,0.251l0.742,0.002c0.297,0.001,0.608,0.003,0.932,0.003
		c7.628,0,30.841,0,37.234-37.084c2.077-12.045,3.342-21.41,3.745-28.82c0.234-0.409,0.401-0.861,0.479-1.346
		c0.042-0.259,4.255-26.119,7.825-46.346C344.795,191.298,343.395,175.528,342.042,160.277z M248.913,394.695
		c-12.118,16.583-23.171,29.537-33.791,39.601c-11.701,11.089-22.954,18.787-34.403,23.534c-5.09,2.11-10.352,3.18-15.641,3.18
		c-18.561,0-35.049-13.027-45.613-23.955c-8.661-8.96-13.394-15.509-19.943-24.572C93,403.46,84.884,392.229,69.644,374.001
		c-21.576-25.806-24.977-66.217-24.504-92.807c1.003-0.605,1.717-1.635,1.898-2.842c0.736,0.648,1.681,1.01,2.655,1.01
		c0.604,0,1.217-0.137,1.794-0.425c0.1-0.05,10.118-4.999,20.499-4.999c8.501,0,14.254,0,20.693-1.699
		c-3.468,1.576-7.234,3.332-10.439,4.935l-27.719,13.859l3.593,7.187l27.718-13.859c8.231-4.116,20.751-9.488,20.876-9.542
		c2.039-0.874,2.984-3.236,2.11-5.275c-0.874-2.039-3.235-2.985-5.275-2.11c-0.083,0.035-0.466,0.2-1.082,0.467
		c0.715-1.096,0.883-2.519,0.319-3.807c-0.89-2.033-3.258-2.96-5.291-2.071c-8.872,3.881-14.084,3.881-25.506,3.881
		c-12.257,0-23.615,5.608-24.092,5.847c-0.339,0.169-0.64,0.383-0.907,0.626c-0.077-4.907-0.154-11.214-0.171-16.858
		c0.391-5.179,0.499-10.441,0.464-15.216c1.224-8.64,5.737-31.398,10.574-38.655c6.217-9.325,14.123-38.843,15.003-42.178
		c0.009-0.035,0.018-0.07,0.026-0.106l2.217-9.42c11.52,18.902,31.92,30.161,32.93,30.709c1.591,0.865,3.565,0.558,4.819-0.75
		c1.253-1.308,1.476-3.293,0.544-4.847c-0.632-1.053-1.11-2.39-1.469-3.844c9.061,7.753,21.366,14.47,23.241,15.476
		c1.749,0.938,3.922,0.459,5.113-1.13c7.021-9.361,14.5-28.809,17.948-38.388c3.291,2.992,8.202,7.919,13.622,14.933
		c9.12,11.803,41.592,24.205,51.688,24.204c2.862-0.001,4.837-0.938,5.87-2.786c0.435-0.778,1.272-2.871-0.341-5.491
		c-1.963-3.189-4.332-12.007-6.368-21.249c5.741,8.469,11.322,18.355,11.587,24.726c0.324,7.782,3.377,18.212,8.377,28.614
		c5.372,11.178,12.116,20.46,18.989,26.138c2.252,1.86,8.096,9.984,13.724,45.17c2.871,17.944,4.388,34.975,4.668,38.257
		l-0.143,0.687C276.898,334.841,270.655,364.942,248.913,394.695z M292.998,311.102c-0.312,0-0.611-0.002-0.896-0.003l-0.21-0.001
		c4.741-12.609,11.886-33.657,11.886-45.998c0-12.821,4.458-18.95,9.178-25.438c1.001-1.376,2.031-2.792,3.008-4.266
		c1.008,0.821,3.079,2.98,6.254,8.489c1.627,2.823,3,5.587,3.812,7.288c-0.264,6.83-1.428,16.252-3.715,29.514
		C317.071,311.102,300.202,311.102,292.998,311.102z"/>
	<path fill="#040000" d="M322.188,249.536c-1.363-1.751-3.886-2.067-5.638-0.705c-0.359,0.279-8.782,6.945-8.782,16.83
		c0,7.624-2.338,22.525-2.361,22.674c-0.346,2.192,1.15,4.249,3.342,4.595c0.212,0.033,0.423,0.049,0.632,0.049
		c1.942,0,3.651-1.412,3.963-3.391c0.1-0.636,2.459-15.672,2.459-23.927c0-5.884,5.58-10.408,5.694-10.498
		C323.236,253.798,323.546,251.283,322.188,249.536z"/>
</g>
</svg>
