<?xml version="1.0" encoding="utf-8"?>
<!-- Generator: Adobe Illustrator 17.1.0, SVG Export Plug-In . SVG Version: 6.00 Build 0)  -->
<!DOCTYPE svg PUBLIC "-//W3C//DTD SVG 1.1//EN" "http://www.w3.org/Graphics/SVG/1.1/DTD/svg11.dtd">
<svg version="1.1" id="レイヤー_1" xmlns="http://www.w3.org/2000/svg" xmlns:xlink="http://www.w3.org/1999/xlink" x="0px"
	 y="0px" viewBox="0 0 367.482 512.974" enable-background="new 0 0 367.482 512.974" xml:space="preserve">
<g>
	<path d="M216.315,397.641c-2.108-1.159-6.598-2.774-16.693-4.834c-14.948-3.05-22.449-4.387-31.543-4.387
		c-4.619,0-7.837,0.892-10.677,1.68c-3.004,0.833-5.588,1.541-9.839,1.403c-3.036-0.102-6.041-0.572-9.222-1.069
		c-4.177-0.654-8.495-1.33-13.58-1.33c-2.711,0-5.342,0.192-8.044,0.587c-9.496,1.39-16.033,4.115-21.286,6.305
		c-1.964,0.819-3.819,1.592-5.532,2.163l-5.369,1.79l3.797,4.197c0.055,0.06,5.535,6.182,10.783,17.552
		c6.053,13.114,16.459,16.487,28.508,20.393l1.122,0.364c5.837,1.897,12.738,3.921,20.794,3.921c0.001,0,0.001,0,0.002,0
		c9.44,0,19.019-2.788,29.28-8.523c14.241-7.958,18.858-14.192,22.228-18.743c1.649-2.227,2.841-3.837,4.788-5.106
		c7.426-4.844,11.97-9.995,12.16-10.211l1.864-2.13l-1.57-2.355c-0.01-0.015-0.02-0.03-0.031-0.046l2.358-2.004L216.315,397.641z
		 M112.322,405.363c7.237,0,11.525,0.854,17.46,2.036c1.076,0.214,2.202,0.439,3.405,0.67c3.056,0.587,6.288,0.873,9.882,0.873
		c5.365,0,10.975-0.629,17.753-1.45c3.502-0.424,6.461-0.613,9.594-0.613c1.956,0,3.795,0.074,5.742,0.151
		c2.23,0.089,4.535,0.181,7.322,0.181c3.426,0,8.113-0.232,12.578-0.517c-0.738,0.423-1.496,0.839-2.269,1.241
		c-7.238,3.764-26.465,13.762-51.015,14.062C142.612,422,142.45,422,142.289,422c-16.661,0-31.41-10.529-38.397-16.462
		C106.325,405.44,109.216,405.363,112.322,405.363z"/>
	<path d="M265.228,365.237c0.103-0.511,0.191-0.953,0.191-1.46c0-2.041-1.655-3.697-3.697-3.697c-1.946,0-3.541,1.504-3.686,3.413
		c-0.015,0.081-0.035,0.176-0.057,0.288c-0.454,2.261-1.66,8.268,2.199,17.175c0.604,1.394,1.965,2.228,3.394,2.228
		c0.49,0,0.989-0.098,1.468-0.306c1.873-0.812,2.734-2.989,1.922-4.862C264.024,371.235,264.899,366.877,265.228,365.237z"/>
	<path d="M352.327,236.944c-1.56-6.318-2.908-11.775-3.47-15.43c-1.866-12.13-0.659-20.963,1.365-24.336
		c2.758-4.597,2.922-14.085,2.85-26.011c-0.007-1.117-0.013-2.177-0.013-3.153c0-3.165,0.553-4.148,1.47-5.778
		c1.158-2.058,2.599-4.62,3.135-10.522c1.071-11.775-4.389-20.036-10.291-23.02c-0.686-0.764-1.099-4.5-1.374-6.981
		c-0.532-4.803-1.194-10.78-3.904-16.694c-6.649-14.508-29.925-40.479-48.448-57.55c-2.237-2.061-4.369-4.047-6.417-5.954
		c-19.507-18.169-32.393-30.172-55.088-31.062c-1.347-0.053-2.694-0.08-4.005-0.08c-22.073,0-40.018,7.338-60.006,24.537
		c-5.825,5.012-10.291,9.484-14.611,13.81c-10.281,10.294-18.401,18.425-38.45,26.699c-13.526,5.582-28.107,16.688-43.34,33.008
		c-15.117,16.197-27.004,33.473-32.744,42.329c-16.482,25.429-19.852,61.611-19.987,63.139l-0.014,0.326
		c0,7.351,1.016,12.879,3.018,16.429c0.472,0.837,0.967,1.511,1.458,2.057l-4.015,14.953c-3.63,1.472-7.97,3.917-8.727,8.463
		c-1.122,6.732-0.469,12.38,1.926,16.865L8.758,287.46l8.208-7.835c0.72,1.834,1.312,4.228,2.023,7.112
		c1.918,7.783,4.546,18.442,13.033,32.022c0.782,1.25,1.632,2.443,2.547,3.581c-3.403,20.058-6.268,39.748-5.838,49.189
		c0.737,16.222,15.542,47.404,28.801,60.663c12.199,12.199,27.116,32.479,33.961,46.168c3.823,7.646,11.855,15.293,22.036,20.98
		c10.944,6.113,23.49,9.479,35.33,9.479c28.648,0,56.659-2.302,67.551-19.004c10.028-15.377,38.991-45.078,52.487-55.2
		c6.506-4.88,15.796-15.872,24.851-29.404c2.355-3.518,14.128-21.435,14.733-28.692c0.175-2.099,1.444-2.992,4.759-4.83
		c3.208-1.78,7.602-4.218,9.004-9.827c0.894-3.575,1.004-6.573,1.111-9.471c0.156-4.227,0.303-8.219,3.03-14.184
		c2.312-5.058,4.866-11.611,6.707-19.016c0.537-1.153,1.201-2.64,1.895-4.345c4.237-0.962,10.129-7.128,13.921-12.168
		c3.404-4.524,9.247-13.583,10.142-23.431C360.051,268.226,355.768,250.881,352.327,236.944z M69.733,298.781
		c-13.704,0.292-22.398,9.466-24.952,12.569c-0.214-0.295-0.427-0.593-0.639-0.898c0.947-5.326,1.889-10.526,2.771-15.395
		c0.569-3.142,1.115-6.154,1.623-8.983c0.255-1.42,0.526-2.991,0.81-4.679l3.831,3.352v-10.529c0.09,0.164,0.189,0.324,0.307,0.477
		c1.243,1.617,3.563,1.918,5.182,0.677c0.149-0.114,15.092-11.434,28.505-8.996c13.746,2.499,23.674,13.492,23.768,13.598
		c0.731,0.826,1.748,1.247,2.77,1.247c0.87,0,1.744-0.306,2.448-0.928c0.133-0.118,0.252-0.246,0.364-0.378
		c0.447,4.216,0.322,8.713-0.217,13.128c-1.029,0.672-3.037,1.749-6.2,2.524c0.519-0.636,0.831-1.448,0.831-2.333
		c0-2.041-1.655-3.697-3.697-3.697H94.301c-6.072,0-15.02-6.38-17.953-8.837c-1.563-1.312-3.895-1.11-5.208,0.453
		c-1.313,1.563-1.11,3.895,0.453,5.208c0.733,0.615,4.798,3.95,9.977,6.712c-0.12-0.023-0.239-0.047-0.359-0.07
		c-0.295-0.212-0.626-0.383-0.988-0.504c-5.706-1.902-10.616-8.32-10.691-8.419c-1.226-1.63-3.54-1.958-5.172-0.735
		c-1.633,1.225-1.964,3.542-0.74,5.175c0.025,0.034,0.109,0.144,0.244,0.315c-3.334-1.335-5.671-2.539-5.743-2.576
		c-1.811-0.944-4.043-0.241-4.987,1.568c-0.944,1.81-0.243,4.043,1.568,4.987c0.46,0.24,11.373,5.886,21.211,6.87
		c3.342,0.334,6.329,1.069,9.493,1.846c4.755,1.168,9.656,2.372,16.136,2.372c0.697,0,1.413-0.014,2.148-0.044
		c4.557-0.182,8.172-0.961,10.964-1.907c-0.608,2.432-1.319,4.747-2.103,6.866c-4.645,12.558-16.045,17.917-38.119,17.917
		c-7.382,0-16.62-2.002-24.719-9.719c0.112-0.12,0.219-0.247,0.316-0.384c0.072-0.102,7.385-10.193,19.86-10.459
		c2.041-0.043,3.66-1.733,3.617-3.774C73.464,300.356,71.772,298.732,69.733,298.781z M57.718,225.132
		c0.504,3.477,1.178,6.852,2.07,9.973l1.229,4.3c-1.604,0.13-3.305,0.31-5.066,0.529c0.013-0.823,0.12-2.363,0.303-4.419
		C56.75,232.026,57.24,228.548,57.718,225.132z M234.961,214.297l-0.194-5.302c-0.002-0.053-0.085-2.833,0.59-7.265
		c0.568,3.231,1.246,6.711,2.045,10.246c0.709,3.136,1.45,6.049,2.227,8.743C238.076,218.723,236.493,216.568,234.961,214.297z
		 M66.914,235.043c0.04-0.149,2.874-10.78,5.322-19.999c3.462,6.432,8.609,14.679,14.211,19.161l9.372,7.497l-3.53-11.471
		c-0.024-0.079-1.134-3.718-2.339-8.941c4.553,8.769,9.92,18.252,14.575,24.18c-12.712-4.376-29.239-6.297-38.41-6.297
		c-0.099,0-0.202,0.002-0.303,0.002L66.914,235.043z M114.08,245.757c-0.074-0.333-5.127-22.967-7.925-41.654
		c5.629,11.85,13.071,25.9,19.63,32.964l3.13,3.371l2.618-3.782c0.342-0.493,5.531-8.063,9.047-17.235
		c3.453,11.496,8.746,26.113,14.812,32.469l1.711,1.793c-2.113,1.614-3.99,3.212-5.728,4.698c-5.024,4.296-8.343,7.134-13.232,7.134
		c-0.106,0-0.211-0.001-0.318-0.004c-7.159-0.175-9.838-2.88-17-10.111c-0.695-0.702-1.424-1.438-2.193-2.207
		c-0.989-0.989-2.173-1.919-3.511-2.794L114.08,245.757z M207.775,236.406c-17.123,0.901-31.901,5.311-45.177,13.481
		c-0.347,0.214-0.676,0.43-1.011,0.645l0.086-0.381c2.162-9.594,5.797-23.667,8.93-32.311c2.033,3.621,4.968,8.023,8.878,11.933
		l9.309,9.3l-3.106-12.798c-0.005-0.021-0.22-0.93-0.369-2.36c2.087,1.888,4.552,3.966,7.107,5.79l8.01,5.722l-2.264-9.58
		c-0.045-0.189-3.421-14.658-4.237-30.167c5.096,8.568,12.984,19.81,23.61,29.171c6.64,5.85,12.266,9.579,16.898,11.939
		c-5.035-0.419-10.258-0.678-15.822-0.678C215.087,236.111,211.541,236.208,207.775,236.406z M259.708,240.013
		c-0.879-2.365-4.191-11.647-6.254-22.494c-1.682-8.846-2.131-16.499-1.364-22.736c3.041,14.908,8.725,37.476,16.726,47.112
		C266.042,241.24,262.981,240.592,259.708,240.013z M277.288,241.404c0.373,0.644,0.763,1.248,1.17,1.803
		c0.317,0.433,0.661,0.967,1.025,1.587c-0.596-0.185-1.244-0.381-1.94-0.587L277.288,241.404z M53.177,267.986l1.482,1.152
		c-0.268,0.196-0.446,0.331-0.505,0.376c-0.414,0.319-0.739,0.709-0.976,1.139V267.986z M57.608,267.147l-0.282-3.76
		c-0.007-0.091-0.342-4.583-0.681-9.694c2.603-0.383,5.435-0.579,8.503-0.579c13.106,0,27.534,3.515,37.329,6.464
		c5.066,1.525,8.706,4.631,11.128,9.495c0.754,1.515,1.356,3.162,1.829,4.901c-3.172-3.208-13.251-12.384-26.94-14.873
		C76.076,256.844,63.512,263.415,57.608,267.147z M168.642,307.182c-10.105-13.404-5.413-33.672-5.366-33.87l0.071-0.293
		l0.023-0.301c0.368-4.903,6.093-12.242,31.281-19.361c5.904-1.668,13.044-2.551,20.646-2.551c15.37,0,31.697,3.663,38.822,8.71
		c4.464,3.162,5.878,14.101,5.05,25.769c-0.822-1.334-2.439-2.045-4.042-1.644c-0.308,0.077-7.676,1.931-18.338,5.64
		c-8.882,3.089-10.493,3.078-17.285,3.04c-0.841-0.005-1.753-0.01-2.756-0.01c-3.234,0-5.929,0.505-8.411,1.165
		c1.702-0.772,3.347-1.741,4.792-2.964c3.678-3.113,13.942-4.804,19.546-5.139c2.038-0.12,3.593-1.869,3.473-3.907
		c-0.12-2.038-1.869-3.597-3.907-3.473c-1.734,0.102-17.135,1.161-23.888,6.875c-4.047,3.424-11.655,4.199-14.25,4.208
		c-2.04,0.002-3.693,1.656-3.693,3.697c0,2.041,1.655,3.697,3.697,3.697c0.209,0,2.439-0.014,5.464-0.486
		c-2.443,0.555-5.216,0.948-8.699,0.948c-10.312,0-14.511-4.889-14.685-5.097l0.033,0.041l-5.814,4.567
		c0.253,0.322,6.355,7.882,20.465,7.882c7.265,0,11.95-1.453,16.083-2.735c3.261-1.012,6.078-1.885,9.792-1.885
		c0.987,0,1.884,0.005,2.712,0.01c6.517,0.037,9.264,0.053,17.64-2.73c0.199,2.027,1.998,3.507,4.032,3.318
		c0.122-0.012,7.63-0.67,15.361,1.605c-1.159,4.434-2.634,8.412-4.369,11.436c-5.559,9.688-26.05,13.141-43.372,13.141
		c-2.457,0-4.821-0.069-7.026-0.205C187.075,325.378,178.726,320.559,168.642,307.182z M249.13,293.03
		c4.788-1.459,7.746-2.204,7.792-2.216c0.732-0.183,1.357-0.574,1.831-1.093c-0.194,1.65-0.431,3.297-0.707,4.922
		C254.879,293.753,251.804,293.274,249.13,293.03z M106.575,351.465c3.438-3.467,6.532-6.484,8.811-8.65
		c0.644-0.294,1.079-0.446,1.163-0.475l3.079-1.005l-0.592-3.185c-0.863-4.638,0.776-11.795,3.145-18.831
		c0.051-0.087,0.102-0.17,0.152-0.258c5.684-9.788,9.163-20.285,10.208-24.467c1.726-6.903,3.823-6.903,8.89-6.903
		c1.524,0,1.599,0.11,2.014,0.72c1.022,1.502,2.263,4.942,4.141,10.15c0.998,2.767,2.239,6.209,3.787,10.305
		c3.679,9.74,10.505,17.585,19.994,23.257c2.881,4.996,6.195,9.473,9.525,12.079c6.279,4.914,8.63,11.762,6.449,18.789
		c-1.101,3.55-4.607,3.794-12.563,3.007c-1.931-0.191-3.756-0.371-5.469-0.371c-3.734,0-7.641,1.434-11.777,2.951
		c-4.886,1.793-10.424,3.826-16.563,3.826c-6.578,0-11.736-3.148-15.881-5.678c-2.98-1.818-5.334-3.255-7.838-3.255
		c-0.986,0-2.038,0.152-3.152,0.312c-5.519,0.796-7.705,0.588-8.582-4.786C105.242,356.028,105.708,353.541,106.575,351.465z
		 M319.662,335.132c-3.337,7.3-3.527,12.446-3.694,16.985c-0.097,2.636-0.189,5.125-0.895,7.951
		c-0.595,2.379-2.356,3.456-5.419,5.155c-3.385,1.878-8.021,4.45-8.54,10.682c-0.538,6.456-22.727,42.35-36.653,52.795
		c-10.663,7.997-29.842,26.926-43.246,42.743c5.201-8.068,9.864-16.52,13.29-23.094c10.449-20.051,17.282-24.336,17.35-24.377
		l-0.077,0.043l-3.521-6.501c-0.858,0.465-8.722,5.185-20.308,27.418c-13.354,25.627-26.356,43.115-33.932,45.64
		c-1.937,0.646-2.983,2.739-2.338,4.676c0.238,0.712,0.677,1.297,1.227,1.728c-12.28,3.745-28.498,4.449-44.047,4.449
		c-22.472,0-44.385-13.636-50.753-26.372c-3.123-6.246-7.847-13.798-13.234-21.378c0.421-0.067,0.838-0.203,1.231-0.424
		c1.78-1.001,2.411-3.255,1.41-5.034c-3.263-5.801-7.798-11.631-12.184-17.268c-3.389-4.356-6.59-8.471-9.187-12.496
		c-4.509-6.989-4.102-20.078-3.832-28.739c0.056-1.823,0.11-3.546,0.11-4.99c0-9.679-6.29-16.43-6.558-16.712
		c-1.405-1.482-3.744-1.545-5.226-0.141c-1.482,1.404-1.545,3.743-0.141,5.226c0.045,0.048,4.532,4.97,4.532,11.628
		c0,1.33-0.05,2.919-0.106,4.76c-0.298,9.578-0.748,24.053,5.009,32.977c1.177,1.825,2.481,3.675,3.842,5.527
		c-0.338-0.346-0.676-0.689-1.01-1.024c-11.803-11.802-25.996-41.511-26.644-55.771c-0.336-7.388,1.569-21.981,4.154-38.049
		l0.58,1.793l0.77-5.878c9.375,6.889,22.71,10.372,39.854,10.372c6.949,0,13.2-0.536,17.764-0.927
		c4.234-0.363,8.342-2.268,12.296-5.684c-0.101,1.263-0.135,2.488-0.09,3.658c-3.793,1.889-8.308,5.382-11.01,10.661
		c-10.805,10.922-26.371,27.707-29.21,36.442c-0.631,1.942,0.431,4.027,2.373,4.658c0.379,0.123,0.765,0.182,1.143,0.182
		c1.558,0,3.007-0.993,3.515-2.555c1.752-5.391,10.797-16.007,19.955-25.748c2.114,13.115,12.501,11.621,16.942,10.98
		c0.776-0.111,1.577-0.227,2.043-0.236c0.696,0.13,2.627,1.309,4.042,2.173c4.411,2.692,11.076,6.76,19.732,6.76
		c7.452,0,13.916-2.372,19.11-4.278c3.654-1.341,6.81-2.499,9.23-2.499c1.349,0,2.998,0.163,4.742,0.335
		c6.882,0.68,17.285,1.709,20.352-8.173c0.96-3.094,1.299-6.192,1.052-9.197c7.295,7.763,14.661,15.172,19.089,18.462
		c1.063,0.79,2.09,1.535,3.077,2.251c8.892,6.45,12.95,9.393,11.776,20.899c-0.207,2.031,1.271,3.845,3.302,4.053
		c0.128,0.013,0.254,0.019,0.38,0.019c1.873,0,3.479-1.418,3.673-3.322c1.606-15.74-5.63-20.989-14.79-27.634
		c-0.965-0.7-1.97-1.429-3.009-2.201c-6.101-4.533-18.861-18.219-28.353-28.742c4.733,1.154,9.807,1.973,15.207,2.433
		c1.81,0.154,3.67,0.232,5.528,0.232c22.052,0,42.164-10.526,51.519-20.305c2.838-2.967,5.058-6.954,6.845-11.4
		c0.722,0.846,1.756,1.299,2.809,1.299c0.741,0,1.49-0.222,2.139-0.685c1.664-1.183,2.053-3.491,0.87-5.155
		c-0.947-1.332-1.987-2.531-3.094-3.615c1.666-5.964,2.824-12.136,3.819-17.446c0.814-4.345,1.517-8.097,2.213-10.068
		c0.562-1.591,1.629-3.289,7.219-3.289c1.37,0,2.826,0.101,4.28,0.227c2.053,7.398,3.498,14.774,3.498,20.314v35.117l7.354,0.538
		c0.016-0.108,1.177-7.802,4.38-18.128c0.676,1.692,1.356,3.125,1.939,4.346c1.705,3.573,2.411,5.052,1.302,8.379
		c-2.189,6.567-7.571,16.914-7.625,17.018c-0.944,1.81-0.242,4.043,1.568,4.987c0.546,0.285,1.131,0.42,1.707,0.42
		c1.333,0,2.621-0.724,3.28-1.988c0.232-0.444,5.709-10.97,8.085-18.099c2.052-6.157,0.257-9.919-1.644-13.902
		c-0.802-1.68-1.711-3.585-2.514-5.995c-1.826-5.477,2.479-14.658,4.294-17.739c0.845-1.426,0.622-3.189-0.432-4.358
		c0.869-2.757,1.59-5.332,2.179-7.647c2.37,6.352,4.777,14.189,4.777,19.825c0,12.264,2.738,25.182,2.855,25.726l0.022,0.101
		C323.39,326.364,321.449,331.225,319.662,335.132z"/>
	<path d="M175.621,281.683c0.078,0,0.156-0.002,0.234-0.007c0.639-0.04,15.799-1.067,29.327-8.797
		c10.759-6.147,25.984,3.913,26.131,4.012c1.691,1.142,3.989,0.699,5.132-0.994c1.143-1.691,0.698-3.989-0.994-5.132
		c-0.776-0.524-19.173-12.743-33.937-4.305c-11.955,6.831-25.891,7.822-26.123,7.837c-2.037,0.128-3.584,1.883-3.457,3.92
		C172.058,280.176,173.685,281.683,175.621,281.683z"/>
</g>
</svg>
