<?xml version="1.0" encoding="utf-8"?>
<!-- Generator: Adobe Illustrator 17.1.0, SVG Export Plug-In . SVG Version: 6.00 Build 0)  -->
<!DOCTYPE svg PUBLIC "-//W3C//DTD SVG 1.1//EN" "http://www.w3.org/Graphics/SVG/1.1/DTD/svg11.dtd">
<svg version="1.1" id="レイヤー_1" xmlns="http://www.w3.org/2000/svg" xmlns:xlink="http://www.w3.org/1999/xlink" x="0px"
	 y="0px" viewBox="0 0 331.707 481.707" enable-background="new 0 0 331.707 481.707" xml:space="preserve">
<g>
	<path fill="#040000" d="M330.569,193.805c0-20.667-27.333-56-22-55.333c5.333,0.667,11.333,3.252,11.333,3.252
		c-10-12.748-38.667-24.586-25.333-21.919c13.333,2.667,25.333,6.667,25.333,6.667l-62.667-30.667c0,0,11.333-3.333,23.333-5.333
		s18,0,18,0s-30.667-11.333-16-12c14.667-0.667,32.667,2.667,20.204,0c-12.462-2.667-58.204-8-58.204-8s0,0,2.667-2
		c2.667-2,26.667-11.333,26.667-11.333s-38.667-0.667-34-4.667s26-10.667,26-10.667h-48l23.333-18.667l-38,12
		c0,0,12.667-21.333,4-16c-8.667,5.333-13.333,10-24,14.667c-10.667,4.667-32,24-34.667,22c-2.667-2-5.333-36-5.333-36
		l-6.667,10.667l-6-25.333l-29.333,73.333c0,0-3.333,6-9.333,6s-18,5.333-18,5.333c2.667-1.333,10,4.667,10,4.667
		c-5.333,2-17.333,8.667-31.333,19.333c-14,10.667-28.706,32.667-28.706,32.667c3.961-5.333,40.039-26,40.039-26
		c-6.667,4.667-17.333,14-29.333,28s-26,58-28.296,72.667c-2.296,14.667,0.963,33.333,0.296,45.333c-0.667,12,0,37.702,0,37.702
		l2.667-13.702c0,0,2,23.333,4,33.333s9.333,32.667,10.627,44.667c1.294,12,4.039,16.667,10.039,34c6,17.333,0,0,3.333-2.667
		c3.333-2.667,7.333,2,7.333,2l10.667,15.333c0,0,3.812-11.982,5.037-20.193c1.532,2.853,2.989,5.7,4.075,8.097
		c5.75,12.688,36.64,21.517,36.948,21.598c8,2.106,20.152,2.165,20.272,2.165h2.363c0.722,0.479,1.426,0.939,2.118,1.39
		c1.356,0.884,2.637,1.719,3.939,2.63c3.302,2.312,4.274,3.17,5.746,4.471c1.425,1.259,3.2,2.826,7.425,6.076
		c1.155,0.888,2.722,1.945,4.595,3.114l-1.851,0.57l12.5,6l-3.25,1.75l14.25,5.25l-3.25,1.5l11.25,2.75l-2,2.318l16.5,3.182l-1.75,3
		l12.25,1.25l-1.5,2.75l13.25-2.5v2.5l17.25-8.25v3.75l12.75-8.25v3.75l7.5-10.25l3.5,3.5v-10l2.378,1.25l-0.986-4.153
		c0.054-0.087,0.11-0.172,0.164-0.259l2.404,2.661c0,0,1.691-3.324,0.121-6.964c2.195-3.972,4.176-8.077,6.032-11.936
		c1.818-3.78,3.536-7.351,5.212-10.284c4.203-7.354,16.385-29.311,22.205-42.405c5.474-12.316,13.266-44.93,14.376-60.167
		c0.31-4.264-0.729-11.162-1.93-19.148c-0.544-3.617-1.123-7.466-1.538-10.97l3.645-22.875l6,5.333c0,0,1.333-0.667,4.667-25.333
		c3.333-24.667-12-79.333-12-79.333L330.569,193.805z M103.842,416.97c-9.251-2.436-27.813-10.38-30.385-16.056
		c-3.063-6.758-8.605-16.397-11.321-21.023c0.063-0.485,0.1-0.753,0.1-0.753l-0.518-12.474c0.333,0.057,0.657,0.127,1,0.163
		c0.849,0.089,2.986,0.776,4.873,1.383c4.084,1.312,9.168,2.946,13.618,2.946c0.329,0,0.654-0.009,0.971-0.026
		c0.132-0.007,0.26-0.011,0.384-0.011c1.312,0,1.48,0,2.779,3.368c0.138,0.359,0.277,0.719,0.42,1.074
		c0.476,1.187,2.36,5.602,4.666,10.845c2.112,5.392,4.496,10.984,7.272,15.978c1.265,2.629,2.336,4.716,3.009,5.769
		c1.319,2.062,4.795,5.987,8.321,9.784C107.142,417.684,105.343,417.364,103.842,416.97z M298.081,318.145
		c-1.036,14.224-8.548,45.744-13.624,57.165c-5.034,11.326-16.04,31.524-21.795,41.596c-1.834,3.21-3.619,6.92-5.508,10.848
		c-0.926,1.925-1.885,3.917-2.882,5.912l-0.12-0.36l-0.526,1.643c-0.698,1.372-1.416,2.738-2.154,4.081l-1.903-1.474l-1.917,7
		l-9-0.75l-2.75,4.75l-10.642-4.25l-2.608,5l-2.75-2.5l-3.926,7l-8.324-5l-4.747,3l-3.503-4l-5,2l-1.5-2.75l-7,1.25v-5.75l-4.25,1
		v-4.5l-7.75-0.5l3-5.25l-21.912,7.056c-2.705-1.597-4.906-3.016-6.344-4.123c-3.983-3.064-5.63-4.52-6.954-5.688
		c-1.578-1.395-2.825-2.496-6.543-5.099c-1.424-0.996-2.827-1.912-4.185-2.797c-3.904-2.545-7.909-5.157-13.525-10.371
		c-3.8-4.053-7.313-7.966-8.307-9.521c-2.255-3.523-12.424-26.776-14.089-30.926c-0.126-0.313-0.248-0.63-0.37-0.946
		c-0.609-1.581-1.471-3.788-3.038-5.707c-1.836-3.53-3.647-5.212-6.399-5.212c-0.65,0-1.38,0.03-2.192,0.066
		c-0.879,0.038-1.875,0.082-2.943,0.082c-1.998,0-4.696-0.146-8.075-0.99c-0.469-0.149-0.929-0.298-1.375-0.441
		c-1.036-0.333-1.969-0.626-2.857-0.89c-1.055-0.398-2.155-0.855-3.309-1.399c-10.38-4.886-18.348-12.854-19.892-15.941
		c-1.972-3.942-5.271-10.542-7.222-15.094c-0.265-0.617-0.63-1.427-1.066-2.39c-2.52-5.568-8.42-18.608-7.914-26.205
		c0.552-8.278,2.934-10.549,6.792-13.304c2.855-2.039,4.798-2.728,7.698-2.728c0.906,0,1.95,0.067,3.19,0.205
		c0.331,0.036,0.668,0.056,1.011,0.056c1.156,0,2.324-0.209,3.486-0.596v0.068v8l13.333-6l1.754,7.014l-7.442,7.934
		c-0.277,0.296-0.602,0.756-0.84,1.441c-0.312,0.536-1.048,1.628-2.605,3.203c-0.924,0.936-1.288,1.028-1.748,1.146
		c-1.208,0.309-2.595,0.828-3.778,3.096l5.194,2.71c-0.05,0.027-0.1,0.05-0.144,0.064c0.056-0.019,0.115-0.032,0.176-0.048
		l0.093,0.049c0.016-0.03,0.031-0.059,0.045-0.084c0.783-0.206,1.674-0.506,2.749-1.267c-0.223,1.166-0.631,3.836,1.933,4.86
		l2.227-5.572c1.222,0.488,1.703,1.693,1.644,2.354c0.016-0.173,0.064-0.385,0.113-0.633c0.251-1.288,0.672-3.443,0.035-5.908
		c-0.264-1.022-0.284-1.608-0.271-1.869c0.129-0.288,0.202-0.499,0.241-0.628l2.778-9.256l1.848,7.394v-8.667l3.333,6.667v-10.667
		c0,0,2.667,4,4.667,7.333s12,40,15.333,54c3.333,14,9.76,19.333,9.76,19.333v-9.334c6.427,8.666,8.906,4,8.906,4
		s-7.333-23.333-8.667-40.667c-1.333-17.333,3.333-22,3.333-30.667c0-8.667,6.667-9.333,10.667-18.667s6-16,12.667-25.333
		c6.667-9.333,15.333-23.333,17.033-30.073s-5.033-27.26-4.366-25.26c0.54,1.621,1.519,2.804,4,6.389
		c0.58,0.838,1.242,1.807,2,2.944c4,6,16.749,14,16.749,14c-2.707-6.951-6.749-17.333-8.749-26.667s-1.333-16.667-1.333-16.667
		s2.667-2,7.333,4c4.667,6,20.667,14,33.333,22.667s22,10.667,22,10.667c-4.667-8-14.667-22-19.333-32.667
		c-4.667-10.667-6-28-2-25.667c4,2.333,12,7.667,21.333,15.667s40.667,22,48,28s18.667,26.667,18.667,26.667
		c0.667-4.667-2-24.667,0-22.667s6.667,12.667,6.667,12.667s2.667,7.333,4,16c1.125,7.314,2.726,12.726,4.4,17.443
		c0.564,3.971,0.813,7.16,0.55,8.938c-1.974-4.482-2.308-8.067-7.949-12.244c-5.667-4.196-8.333-4.137-13-4.137
		c-4.667,0-14.667,6.167-13.304,8.275c1.863,3.608,7.738,0.057,12.304,0.725c6.833,1,9,3.176,11.43,4.928
		c4.12,2.972,6.904,6.072,9.237,8.405c0.044,0.044,0.085,0.082,0.129,0.124c-1.389,7.234-2.4,12.842-2.95,20.555
		c-0.383,5.358,0.903,13.905,2.146,22.171C297.256,307.819,298.318,314.882,298.081,318.145z"/>
	<path fill="#040000" d="M164.652,262.805c6-0.75,17.25-3.75,21.25-5.5s12-6.667,16.25-7.208c4.25-0.542,6.5-2.44,10.75-2.116
		c4.25,0.324,6.25-1.676,8-3.926c2.573-3.308-3-7-5.5-7s-16,1-19.75,1.5s-13.5,2.75-16.5,5.5s-11.25,10.5-13.75,12.25s-7,6-8.5,6.5
		C156.902,262.805,158.652,263.555,164.652,262.805z"/>
	<path fill="#040000" d="M273.818,338.036c-0.902-2.935-2.01-5.797-3.175-8.65c-1.19-2.785-2.4-5.615-3.609-8.445
		c-0.591-1.393-1.087-2.816-1.634-4.218c-0.271-0.702-0.542-1.403-0.812-2.102c-0.248-0.708-0.494-1.413-0.74-2.116
		c-0.246-0.703-0.492-1.404-0.736-2.101c-0.238-0.726-0.475-1.448-0.711-2.165c-0.461-1.448-0.96-2.821-1.439-4.187l-0.18-0.51
		c-0.087-0.268-0.164-0.406-0.249-0.613c-0.168-0.379-0.334-0.757-0.5-1.133c-0.226-0.39-0.451-0.778-0.674-1.164
		c-0.246-0.372-0.534-0.717-0.802-1.065c-0.484-0.522-0.964-1.039-1.437-1.549c-0.411-0.474-0.821-0.927-1.183-1.409
		c-0.357-0.495-0.715-0.93-1.067-1.456c-0.353-0.539-0.7-1.071-1.042-1.593c-0.629-0.951-1.261-2.023-1.831-2.975
		c-1.136-1.943-1.962-3.754-2.581-5.443c-0.593-1.7-0.978-3.276-1.321-4.582c-0.68-2.617-1.069-4.113-1.069-4.113l-1.245,0.217
		c0,0,0.143,1.543,0.392,4.242c0.056,0.676,0.146,1.425,0.261,2.251c0.092,0.822,0.259,1.72,0.44,2.686
		c0.395,1.932,1.119,4.085,2.077,6.269c0.497,1.1,0.969,2.172,1.58,3.384c0.288,0.554,0.581,1.117,0.878,1.689
		c0.311,0.577,0.716,1.206,1.083,1.821c0.38,0.616,0.819,1.208,1.246,1.803c0.406,0.527,0.816,1.061,1.231,1.601
		c0.127,0.223,0.277,0.429,0.397,0.656l0.321,0.708l0.279,0.86c0.038,0.129,0.115,0.318,0.128,0.396l0.143,0.522
		c0.381,1.394,0.786,2.818,1.128,4.237c0.179,0.711,0.358,1.427,0.539,2.147c0.201,0.74,0.404,1.484,0.607,2.23
		c0.204,0.747,0.408,1.498,0.613,2.25c0.237,0.743,0.476,1.489,0.714,2.236c0.498,1.486,0.949,3.001,1.493,4.477
		c1.078,2.9,2.155,5.799,3.216,8.653c1.049,2.799,2.038,5.541,2.766,8.156c0.341,1.297,0.672,2.582,0.833,3.757
		c0.118,0.608,0.129,1.142,0.186,1.689c-0.015,0.48,0.027,1.025-0.063,1.355l-0.034,0.28l-0.003,0.036l-0.047,0.173
		c-0.086,0.315-0.171,0.628-0.255,0.939c-0.085,0.304-0.167,0.633-0.253,0.91c-0.098,0.207-0.18,0.416-0.261,0.624
		c-0.164,0.417-0.28,0.824-0.545,1.29c-0.232,0.45-0.397,0.919-0.663,1.342c-0.924,1.753-2.067,3.289-3.127,4.677
		c-1.13,1.428-2.116,2.673-2.928,3.698c-0.795,0.982-1.346,1.613-1.704,1.909c-0.085,0.071-0.168,0.154-0.236,0.205
		c-0.062,0.035-0.117,0.066-0.162,0.1c-0.097,0.069-0.146,0.105-0.146,0.105v2.554c0,0,0.142,0.013,0.416,0.037
		c0.14,0.011,0.315,0.015,0.527,0.016c0.199-0.013,0.413-0.052,0.671-0.093c1.005-0.19,2.25-0.743,3.482-1.54
		c1.274-0.805,2.559-1.671,4.161-2.972c1.559-1.297,3.262-2.952,4.748-5.157c0.73-1.13,1.439-2.247,2.04-3.797
		c0.155-0.369,0.311-0.742,0.453-1.121c0.088-0.309,0.177-0.62,0.267-0.934c0.087-0.31,0.174-0.622,0.262-0.937l0.066-0.236
		l0.084-0.335l0.024-0.175l0.09-0.703c0.216-1.888,0.021-3.515-0.259-5.069C274.67,340.988,274.25,339.523,273.818,338.036z"/>
	<path fill="#040000" d="M219.825,357.029c-0.106-0.126-0.278-0.296-0.295-0.319c-0.016-0.012-0.033-0.024-0.053-0.035l-0.031-0.016
		c-0.015-0.02-0.037-0.069-0.055-0.102l-0.226-0.436l-0.022-0.043l-0.044-0.13l-0.115-0.313c-0.08-0.209-0.186-0.401-0.219-0.643
		c-0.095-0.461-0.237-0.899-0.273-1.392c-0.033-0.24-0.065-0.475-0.097-0.704c-0.016-0.245-0.031-0.485-0.045-0.719
		c-0.033-0.461-0.065-0.932-0.075-1.378c-0.02-0.437-0.029-0.869-0.033-1.274c-0.02-0.419-0.038-0.803-0.054-1.15
		c-0.021-0.368-0.03-0.694-0.059-0.976c-0.039-0.259-0.073-0.479-0.1-0.658c-0.061-0.357-0.094-0.547-0.094-0.547l-2.733-0.112
		c0,0-0.05,0.187-0.144,0.537c-0.044,0.175-0.098,0.391-0.161,0.645c-0.081,0.228-0.151,0.49-0.24,0.779
		c-0.091,0.309-0.192,0.652-0.302,1.024c-0.102,0.385-0.212,0.809-0.323,1.288c-0.111,0.469-0.244,0.972-0.321,1.543
		c-0.045,0.282-0.092,0.57-0.139,0.866c-0.023,0.312-0.047,0.632-0.071,0.959c-0.071,0.643-0.026,1.374,0.028,2.125
		c0.005,0.371,0.103,0.77,0.182,1.171l0.135,0.606l0.073,0.306l0.037,0.154l0.112,0.288l0.171,0.46l0.048,0.123l0.098,0.195
		l0.206,0.39c0.299,0.567,0.586,0.897,0.894,1.312c0.64,0.75,1.374,1.408,2.168,1.929c1.592,1.043,3.328,1.684,5.238,1.963
		c0.972,0.11,1.963,0.224,3.328-0.093l0.137-0.036l0.288-0.094c0.201-0.069,0.4-0.145,0.595-0.227
		c0.357-0.158,0.527-0.268,0.796-0.41c0.443-0.265,0.83-0.527,1.177-0.779c1.345-1.006,2.359-1.876,3.361-2.483
		c0.496-0.318,0.974-0.541,1.44-0.715c0.233-0.098,0.464-0.156,0.696-0.213c0.319-0.074,0.696-0.133,1.037-0.2
		c0.678-0.128,1.434-0.304,2.109-0.451c0.655-0.15,1.284-0.306,1.849-0.42c1.143-0.235,2.035-0.337,2.86-0.189
		c0.204,0.049,0.406,0.099,0.614,0.136c0.272,0.087,0.538,0.172,0.797,0.255c0.54,0.17,1.015,0.296,1.471,0.422
		c0.898,0.249,1.675,0.407,2.245,0.6c0.577,0.183,0.97,0.355,1.156,0.502c0.186,0.139,0.24,0.24,0.249,0.239l0.944-0.236
		c-0.013,0.011-0.002-0.288-0.231-0.728c-0.234-0.429-0.68-0.904-1.265-1.346c-0.589-0.442-1.293-0.909-2.086-1.387
		c-0.389-0.24-0.815-0.499-1.21-0.766c-0.207-0.14-0.419-0.283-0.636-0.43c-0.294-0.165-0.607-0.322-0.929-0.485
		c-1.318-0.605-2.928-0.827-4.363-0.811c-0.727,0.008-1.42,0.031-2.114,0.074c-0.676,0.033-1.296,0.075-2.026,0.096
		c-0.362,0.02-0.696,0.026-1.088,0.059c-0.482,0.039-0.965,0.096-1.433,0.205c-0.943,0.198-1.841,0.534-2.652,0.923
		c-1.643,0.767-3.001,1.798-4.13,2.519c-0.54,0.373-1.08,0.596-0.995,0.542c-0.103,0.034-0.639,0.038-1.133-0.048
		c-1.032-0.15-2.101-0.536-2.91-0.996C220.438,357.536,220.109,357.28,219.825,357.029z"/>
	<path fill="#040000" d="M264.288,392.305c-0.005-0.005-0.009-0.009-0.014-0.014c-1.65-1.672-3.436-3.355-4.366-3.819l0.904,0.867
		c-0.965-0.559-2.037-0.867-3.576-0.867h-3.333c-3.667,1-2.667,1.667-5.667,1.333c-3-0.333-6.333-3.667-11-3.667
		c-4.667,0-7,1-14,2.333c-7,1.333-9.333,2.667-14.667,3.833c-5.333,1.167-4.333-0.5-9.333,1.833
		c-1.25,0.583-2.271,1.229-3.099,1.906c-2.484,2.031-3.234,4.344-3.234,6.094c0,2.333,2-7.667,5.667-6
		c3.667,1.667,10.667,7.333,14.333,10.333s13.741,11.333,19.87,12.333s6.796,1.667,13.63,0c6.833-1.667,8.833-5.667,10.833-9.333
		c2-3.667,0.752-5.333,1.876-8c1.124-2.667,0.796,0,4.793-2.667c3.997-2.667,3.997-2.667,3.997-2.667
		S266.838,394.752,264.288,392.305z"/>
	<path fill="#040000" d="M283.176,276.883c-5.141-2.089-7.397-1.997-11.728-2.141s-12.796,3.438-13.193,6.564
		c-0.397,3.126-0.389,2.688,0.764,4.394c1.153,1.706,2.572,1.959,4.746,2.492c3.779,0.926,4.272,0.843,7.26,1.276
		s9.052-1.433,11.909-3.339s7.382-1.157,7.382-1.157S288.317,278.972,283.176,276.883z"/>
	<path fill="#040000" d="M163.318,282.134c0.618-0.061,1.372-0.233,2.22-0.48C162.508,281.397,160.595,282.403,163.318,282.134z"/>
	<path fill="#040000" d="M206.236,286.805c2-1.667,4-4.67,4-4.67s-5-7.797-9.333-7.397s-16,0.234-21.333,1.817
		c-4.369,1.297-10.189,3.984-14.031,5.1c0.77,0.065,1.609,0.209,2.466,0.48c4.231,1.337,7.231,6.123,11.564,7.397
		c4.333,1.274,8,2.94,13.333,1.607S204.236,288.471,206.236,286.805z"/>
	<path fill="#040000" d="M164.401,274.781c0.637-0.294,1.298-0.609,1.973-0.97c0.674-0.347,1.337-0.728,1.996-1.117
		c1.308-0.791,2.607-1.621,3.68-2.542c0.551-0.459,1.028-0.909,1.487-1.37c0.23-0.25,0.431-0.436,0.607-0.647
		c0.091-0.105,0.181-0.209,0.269-0.31c0.091-0.101,0.183-0.216,0.211-0.269l0.135-0.214l0.067-0.116l-0.001-0.06
		c0.005-0.043-0.009-0.095,0.021-0.153c0.08-0.061,0.158-0.12,0.233-0.178c0.342-0.241,1.009-0.542,1.22-0.788
		c0.567-0.48,0.867-0.849,0.867-0.849l-0.531-2.122c0,0-0.438-0.181-1.162-0.333c-0.196-0.029-0.362-0.111-0.525-0.173
		c-0.082-0.031-0.167-0.063-0.255-0.096c-0.065-0.038-0.198-0.057-0.362-0.078c-0.154-0.02-0.312-0.041-0.475-0.062
		c-0.208,0.006-0.461,0.04-0.705,0.073l-0.377,0.062l-0.291,0.074c-0.197,0.059-0.399,0.119-0.604,0.181
		c-0.229,0.071-0.378,0.122-0.535,0.184c-0.16,0.062-0.323,0.124-0.489,0.188c-0.339,0.126-0.671,0.288-0.971,0.422
		c-0.607,0.297-1.266,0.632-1.87,1.012c-1.242,0.75-2.414,1.702-3.583,2.683c-1.175,0.996-2.253,2.034-3.292,3.142
		c-0.511,0.552-0.984,1.077-1.425,1.638c-0.431,0.589-0.824,1.146-1.163,1.674c-0.34,0.526-0.571,1.031-0.799,1.484
		c-0.219,0.454-0.388,0.871-0.537,1.202c-0.278,0.684-0.405,1.103-0.405,1.103l0.182,0.193c0,0,0.43-0.099,1.128-0.323
		c0.339-0.123,0.762-0.257,1.222-0.435c0.461-0.168,0.964-0.413,1.504-0.614c0.539-0.203,1.096-0.438,1.671-0.687
		C163.098,275.336,163.767,275.08,164.401,274.781z"/>
	<path fill="#040000" d="M73.061,324.805c-0.509-0.527-0.974-0.967-1.395-1.364c-1.368-1.291-1.614-1.523-1.776-3.285
		c-0.323-3.518-0.654-10.424-0.657-10.493l-5.993,0.285c0.014,0.288,0.34,7.108,0.676,10.757c0.37,4.02,1.955,5.516,3.632,7.1
		c0.361,0.341,0.76,0.717,1.197,1.169c0.44,0.455,0.942,1.234,1.447,2.161c-3.832-0.814-14.785-3.932-17.614-5.346
		c-1.727-0.863-2.975-4.496-3.886-7.149c-0.219-0.636-0.43-1.25-0.641-1.823l-5.63,2.074c0.196,0.533,0.393,1.105,0.596,1.698
		c1.317,3.834,2.956,8.606,6.877,10.567c3.719,1.858,15.967,5.234,19.419,5.924c2.883,0.577,4.944,1.543,4.958,1.55l6.537,3.136
		l-2.41-6.838C77.972,333.719,75.713,327.553,73.061,324.805z"/>
	<path fill="#040000" d="M219.043,277.055c-0.5-0.258-0.963-0.379-1.341-0.451c-0.374-0.078-0.683-0.086-0.894-0.088
		c-0.248-0.022-0.346,0.012-0.34,0.011l-0.983,2.053c0.007-0.002,0.05,0.101,0.063,0.22c0.044,0.137,0.109,0.339,0.191,0.595
		c0.139,0.501,0.287,1.161,0.198,1.645c-0.01,0.121-0.072,0.227-0.087,0.315c-0.08,0.1-0.072,0.16-0.146,0.236
		c-0.066,0.069-0.074,0.123-0.149,0.2c-0.042,0.057-0.086,0.148-0.149,0.24c-0.107,0.183-0.228,0.445-0.412,0.77l-0.057,0.121
		l-0.028,0.062l-0.007,0.016c-0.046,0.075,0.061-0.098,0.048-0.077l-0.004,0.006l-0.007,0.013l-0.029,0.051l-0.231,0.411
		l-0.459,0.829c-0.288,0.566-0.58,1.129-0.831,1.706c-0.251,0.463-0.439,0.862-0.638,1.318c-0.156,0.463-0.428,0.882-0.674,1.299
		c-0.245,0.427-0.437,0.849-0.681,1.269c-1.043,1.662-1.537,3.068-1.537,3.068l0.751,0.947c0,0,1.479-0.172,3.394-0.879
		c0.484-0.186,1.018-0.493,1.575-0.797c0.276-0.165,0.559-0.334,0.849-0.507c0.291-0.172,0.533-0.442,0.811-0.672
		c0.52-0.485,1.109-1.034,1.584-1.579c0.408-0.477,0.786-0.985,1.168-1.491l0.544-0.775l0.269-0.387l0.034-0.048l0.088-0.145
		l0.081-0.146l0.159-0.293c0.419-0.759,0.763-1.646,0.905-2.618c0.069-0.486,0.134-0.967,0.079-1.484
		c-0.016-0.494-0.102-0.994-0.244-1.463c-0.268-0.938-0.749-1.735-1.279-2.301C220.108,277.679,219.547,277.304,219.043,277.055z"/>
	<path fill="#040000" d="M248.676,268.426l0.511,0.257c0,0,0.115-0.05,0.301-0.158c0.19-0.105,0.469-0.258,0.785-0.498
		c0.668-0.449,1.488-1.167,2.333-2.002c0.845-0.831,1.701-1.738,2.523-2.527c0.416-0.396,0.825-0.764,1.241-1.125l0.726-0.628
		l0.419-0.369c0.119-0.097,0.239-0.192,0.353-0.296c0.454-0.406,0.988-0.813,1.451-1.192c0.488-0.357,0.943-0.723,1.422-1.029
		c0.93-0.634,1.965-1.199,2.974-1.753c1.005-0.54,1.897-1.101,2.499-1.518c0.604-0.431,0.93-0.722,0.93-0.722l-0.646-2.292
		c0,0-0.415-0.086-1.112-0.172c-0.7-0.075-1.679-0.193-2.911-0.172c-0.613,0.002-1.31,0.058-2.066,0.162
		c-0.755,0.127-1.581,0.303-2.412,0.607c-0.834,0.292-1.67,0.677-2.453,1.141c-0.793,0.464-1.502,0.968-2.22,1.557l-0.53,0.445
		l-0.436,0.401l-0.414,0.397l-0.103,0.099l-0.08,0.078l-0.031,0.033l-0.062,0.067l-0.246,0.267
		c-0.645,0.718-1.195,1.496-1.601,2.285c-0.833,1.577-1.17,3.096-1.301,4.352c-0.121,1.259-0.079,2.3,0.005,3.063
		C248.587,267.932,248.676,268.426,248.676,268.426z"/>
</g>
</svg>
