<?xml version="1.0" encoding="utf-8"?>
<!-- Generator: Adobe Illustrator 17.1.0, SVG Export Plug-In . SVG Version: 6.00 Build 0)  -->
<!DOCTYPE svg PUBLIC "-//W3C//DTD SVG 1.1//EN" "http://www.w3.org/Graphics/SVG/1.1/DTD/svg11.dtd">
<svg version="1.1" id="レイヤー_1" xmlns="http://www.w3.org/2000/svg" xmlns:xlink="http://www.w3.org/1999/xlink" x="0px"
	 y="0px" viewBox="0 0 344.983 404.98" enable-background="new 0 0 344.983 404.98" xml:space="preserve">
<g>
	<path fill="#040000" d="M181.964,233.067c-3.733-1.333-10.665,2.933-10.665,2.933s0,0-3.199-1.066
		c-3.199-1.066-33.061,10.398-33.061,10.398l-1.066,0.165c0,0,22.929,10.767,28.795,12.238c5.866,1.471,17.064-0.938,25.596-3.338
		c8.532-2.4,28.528-4.266,26.929-4.533C213.692,249.597,185.697,234.4,181.964,233.067z"/>
	<path fill="#040000" d="M195.086,271.554c-16.352-6.484-39.133-1.24-40.095-1.014c-1.98,0.467-3.207,2.449-2.742,4.429
		c0.465,1.98,2.449,3.212,4.429,2.745c0.213-0.05,21.51-4.933,35.691,0.69c0.446,0.177,0.906,0.261,1.357,0.261
		c1.466,0,2.853-0.882,3.427-2.328C197.903,274.445,196.978,272.303,195.086,271.554z"/>
	<path fill="#040000" d="M144.511,211.4c0.817-0.091,1.539-0.445,2.098-0.965c1.017,0.719,2.138,1.263,3.457,1.52
		c0.238,0.046,0.474,0.068,0.707,0.068c1.729,0,3.271-1.222,3.613-2.982c0.388-1.998-0.916-3.932-2.914-4.321
		c-0.768-0.149-1.964-1.506-3.35-3.077c-0.311-0.353-0.635-0.72-0.976-1.099c-0.057-1.7,1.84-6.623,4.161-10.717
		c1.004-1.769,0.384-4.018-1.385-5.023c-1.769-1.006-4.019-0.386-5.024,1.384c-3.509,6.175-6.945,14.281-3.897,18.495
		c-6.333,2.166-11.93,9.477-16.668,21.795c-3.736,9.713-5.628,19.07-5.706,19.464c-0.399,1.995,0.895,3.936,2.89,4.336
		c0.244,0.049,0.488,0.072,0.728,0.072c1.72,0,3.258-1.21,3.61-2.961C128.743,232.984,136.441,212.297,144.511,211.4z"/>
	<path fill="#040000" d="M215.335,209.676c-4.958-5.524-9.884-10.59-9.933-10.64c-0.216-0.222-0.459-0.4-0.712-0.556
		c0.415-4.255-4.242-10.948-6.942-13.195c-0.448-0.692-1.444-2.877-2.216-4.871c-0.735-1.898-2.867-2.843-4.766-2.108
		c-1.898,0.734-2.842,2.867-2.109,4.765c2.402,6.214,3.707,7.553,4.69,8.091c1.276,1.277,3.863,5.244,4.013,6.627
		c-0.395,2.602-3.115,7.393-4.5,7.908c-1.989,0.31-3.365,2.163-3.079,4.162c0.263,1.838,1.839,3.164,3.643,3.164
		c0.174,0,0.349-0.013,0.526-0.038c3.386-0.484,6.116-3.606,7.982-6.934c9.005,9.387,16.628,18.345,17.488,20.599
		c0.494,2.857,0.22,10.661-0.073,14.965c-0.138,2.03,1.396,3.788,3.427,3.927c0.085,0.005,0.17,0.008,0.254,0.008
		c1.921,0,3.541-1.489,3.673-3.434c0.085-1.249,0.807-12.333-0.055-16.928C226.404,223.903,225.955,221.508,215.335,209.676z
		 M196.747,184.621c0.417,0.179,0.71,0.406,0.883,0.567C197.298,184.923,196.999,184.729,196.747,184.621z"/>
	<path fill="#040000" d="M190.629,203.872c-8.265-4.399-12.131,3.866-12.131,3.866l0.667,0.6
		C189.163,208.938,190.629,203.872,190.629,203.872z"/>
	<path fill="#040000" d="M161.834,202.582c-4.133-2.49-7.332,2.903-7.332,2.903v0.52c2.266,1.733,12.798,1.733,12.798,1.733
		S165.967,205.072,161.834,202.582z"/>
	<path fill="#040000" d="M201.828,157.289c0.109,0.008,10.996,0.8,17.054,1.702c0.692,0.103,1.41,0.155,2.134,0.155
		c3.506,0,6.756-1.197,9.624-2.252c2.097-0.772,4.078-1.502,5.495-1.502c0.121,0,0.24,0.006,0.357,0.018
		c3.663,0.396,10.13,2.582,12.312,3.391c1.564,0.579,3.323,0.037,4.288-1.325c0.964-1.361,0.894-3.201-0.172-4.484l-3.599-4.335
		c-0.32-0.386-0.716-0.702-1.162-0.929c-1.87-0.953-3.376-2.159-4.97-3.435c-4.062-3.252-8.665-6.937-19.827-7.557
		c-16.695-0.926-24.288,14.649-24.595,15.293c-0.524,1.099-0.47,2.386,0.142,3.438S200.613,157.201,201.828,157.289z
		 M230.665,149.069c0.476-1.116,0.792-2.359,0.656-3.465c1.837,0.662,3.292,1.491,4.619,2.421
		C234.163,148.055,232.4,148.499,230.665,149.069z M213.651,146.369c-0.501,1.039-0.902,2.605-0.312,4.531
		c-1.581-0.163-3.16-0.312-4.609-0.442C209.999,149.04,211.638,147.553,213.651,146.369z"/>
	<path fill="#040000" d="M205.724,380.285c-0.506,0.079-1.013,0.15-1.522,0.209C204.458,380.459,204.98,380.389,205.724,380.285z"/>
	<path fill="#040000" d="M330.075,307.531c-2.245-20.405-3.071-41.764-7.984-73.701c-5.728-37.232-2.633-61.848-7.984-86.599
		c-4.913-22.725-11.896-42.941-20.961-56.805C284.08,76.56,229.156-2.626,178.498,4.306c0,0-10.665,0.8-13.598,3.199
		c0,0-23.996-10.398-51.991,7.199C84.914,32.301,42.521,78.693,35.056,98.69s-9.613,48.245-9.613,64.509
		c0,16.264-8.541,41.731-6.142,54.662c-0.722,0.794,2.179,18.604-2.457,35.008c-3.923,13.882-11.669,30.095-11.669,30.095
		s19.897-11.311,21.496-18.425c0,0,3.208,16.05,3.685,35.008c0.618,24.532-13.9,43.13-21.721,49.296c0,0,4.794,0.038,14.126-9.827
		c-1.6,3.733,8.152,22.753,0.153,40.617c0,0,16.534-8.908,15.201-18.506c1.037,0.908,0.378,20.273,17.811,30.402
		c18.408,10.696,44.745,11.121,53.373,7.834c-1.425,0.508-23.196,0.533-31.461-13.864c0,0-3.733-6.665-3.466-15.731
		c0,0,13.492,21.146,44.344,25.329c0,0-24.403-16.773-21.415-36.527c0,0,9.909,9.927,28.642,13.612c0,0-27.311-12.036-30.28-35.17
		c-2.687-20.943,3.354-21.898,0.369-36.905c10.771,11.641,23.045,19.851,37.923,25.707c10.953,4.311,25.733,6.637,40.628,6.636
		c20.158-0.001,40.522-4.261,51.854-13.622c7.589-6.269,16.015-13.905,23.805-22.447c3.023-1.062,6.583-2.422,10.102-4.022
		c-0.868,1.879-15.723,58.555-42.119,64.954c0,0,22.929,2.133,34.394-11.998c0,0-21.225,30.936-46.894,34.97
		c7.459-1.05,45.94,3.404,57.405-15.021c0,0-14.083,24.767-26.614,38.898c1.586,0,27.856-2.865,49.339-27.843
		c14.641-17.023,22.649-36.557,29.685-38.079c10.99-2.378,25.068,26.102,26.205,26.205
		C343.437,364.598,333.141,335.393,330.075,307.531z M258.316,129.287c-0.014-0.003-0.028-0.006-0.043-0.009
		c0.011,0.002,0.027,0.005,0.038,0.007C258.313,129.286,258.314,129.287,258.316,129.287z M188.037,142.316l0.113-0.068
		c-0.003,0.002-0.006,0.005-0.009,0.007c0.055-0.032,0.129-0.075,0.227-0.132c2.472-1.421,18.443-10.228,35.282-10.743
		c18.32-0.561,31.593,4.892,32.808,9.877c1.215,4.985-0.187,19.005-4.019,23.118c-3.832,4.113-7.384,9.814-22.713,11.403
		c-15.329,1.589-28.415-1.028-32.247-3.832c-3.832-2.804-12.431-9.44-10.936-22.246c0.466-1.305,0.41-6.748,1.599-7.445
		C188.074,142.294,188.037,142.316,188.037,142.316z M116.755,77.216l1.571-3.988c0,0,2.981,34.194,18.778,39.993
		c1.2,0.4-15.797-18.597-3.599-44.592c1.4,0,19.797,47.192,42.993,52.191c13.998,3.017,31.125,5.014,42.508,6.123
		c-25.341,2.933-38.376,13.06-38.376,13.06c-8.532-2.68-15.864-0.386-17.597,0c-12.531-6.679-25.329-8.785-30.643-10.118
		c-5.314-1.333-13.882-0.667-24.947-1.6c-2.207-0.186-4.584-0.136-7.008,0.068l17.891-53.126
		C118.327,75.227,117.729,75.965,116.755,77.216z M154.268,160.873c-7.582,18.635-30.966,16.899-45.673,15.894
		c-12.786-0.874-16.941-6.305-20.089-12.991l1.284-3.812c0.267,0.638,0.686,1.171,1.213,1.556c0.309,0.423,0.713,0.787,1.203,1.056
		c0.563,0.309,1.171,0.456,1.77,0.456c1.302,0,2.563-0.691,3.233-1.912c0.004-0.006,0.007-0.013,0.01-0.019
		c3.227-1.018,7.765-2.334,10.255-2.627c3.785-0.445,9.962-0.678,15.95,0.002c1.872,0.213,4.436,0.26,7.114,0.221
		c-4.156,1.595-8.043,2.791-9.553,2.704c-4.173-0.238-9.644-1.839-9.698-1.855c-1.952-0.578-4.002,0.538-4.578,2.49
		c-0.577,1.952,0.538,4.002,2.49,4.578c0.256,0.076,6.333,1.857,11.366,2.145c0.148,0.008,0.3,0.013,0.457,0.013
		c5.505,0,16.765-5.039,19.021-6.075c1.731-0.795,2.551-2.762,1.954-4.527c1.008-0.071,1.66-0.123,1.776-0.133
		c1.467-0.119,2.722-1.099,3.193-2.494c0.348-1.03,0.215-2.139-0.318-3.046c0.358,0.291,0.771,0.524,1.239,0.667
		c0.359,0.109,0.722,0.162,1.078,0.162c1.578,0,3.038-1.021,3.523-2.609c0.573-1.877,0.836-6.809-9.083-12.065
		c-1.799-0.954-4.028-0.268-4.982,1.531c-0.953,1.798-0.268,4.028,1.531,4.981c2.212,1.172,4.699,3.072,5.348,4.052
		c-0.094,0.809,0.094,1.601,0.488,2.276c-2.622-2.344-14.248-12.343-21.878-12.493c-7.379-0.146-22.848,3.094-31.55,15.934
		c-0.172,0.058-0.3,0.102-0.379,0.129c-0.227,0.078-0.441,0.177-0.641,0.292l7.044-20.915c6.347-1.656,14.408-1.552,22.267-1.242
		c13.885,0.548,28.957,5.207,33.524,10.564c4.567,5.358,1.553,11.176,1.188,12.188c-0.365,1.012-2.01-0.464-2.923-0.511
		s-1.188,2.331-1.188,2.331L154.268,160.873z M131.435,149.771c0.71,0.446,1.45,0.932,2.222,1.469
		c-0.998,0.037-1.997,0.064-2.97,0.081C130.95,150.852,131.204,150.338,131.435,149.771z M115.112,147.673
		c0.191,0.973,0.536,2.021,1.124,3.012c-0.287-0.003-0.574-0.011-0.862-0.011c-2.871,0-5.722,0.143-8.324,0.43
		C109.745,149.503,112.536,148.408,115.112,147.673z M255.133,278.877c-9.692,13.264-22.442,25.223-33.39,34.268
		c-17.355,14.336-61.291,15.178-85.088,5.811c-24.785-9.755-41.91-26.695-57.26-56.642c-6.578-12.833-9.202-28.198-10.037-41.677
		l16.567-49.193c2.263,2.322,4.578,4.357,6.189,5.7c3.999,3.333,14.398,5.199,29.595,4.933c15.197-0.267,20.33-2.2,25.414-4.066
		c5.084-1.866,12.779-15.997,14.246-19.33c1.466-3.333,4.081-9.326,3.389-8.665c5.988-6.332,13.875,1.466,13.875,1.466
		c1.066,9.732,11.465,22.13,21.063,27.195c9.598,5.066,32.261,2.4,43.193,0c10.931-2.4,18.797-13.464,19.863-17.064
		c0.587-0.764,1.132-1.52,1.638-2.267c0,0,0,0,0,0c1.117,1.245,6.98,24.687,12.253,42.546
		C275.989,220.505,265.1,256.331,255.133,278.877z"/>
	<path fill="#040000" d="M89.836,414.56c-0.075-0.005-0.148-0.013-0.223-0.018C89.756,414.557,89.836,414.56,89.836,414.56z"/>
</g>
</svg>
