<?xml version="1.0" encoding="utf-8"?>
<!-- Generator: Adobe Illustrator 17.1.0, SVG Export Plug-In . SVG Version: 6.00 Build 0)  -->
<!DOCTYPE svg PUBLIC "-//W3C//DTD SVG 1.1//EN" "http://www.w3.org/Graphics/SVG/1.1/DTD/svg11.dtd">
<svg version="1.1" id="レイヤー_1" xmlns="http://www.w3.org/2000/svg" xmlns:xlink="http://www.w3.org/1999/xlink" x="0px"
	 y="0px" viewBox="0 0 348.78 381.707" enable-background="new 0 0 348.78 381.707" xml:space="preserve">
<g>
	<path fill="#040000" d="M107.191,275.026c-3.333-0.437-5.667,2.104-5.667,2.104s-1.333-0.667-2-2.167c-5.167-2.5-24.167-2-24.167-2
		s3.167,5.667,4.667,9c1.5,3.333,10.167,9.167,15,12.5c4.833,3.333,18.667,0.5,22.833-1.667c4.167-2.167,21.5-13.833,21.5-13.833
		s-5.333-0.167-12-0.833C120.691,277.463,110.524,275.463,107.191,275.026z"/>
	<path fill="#040000" d="M76.077,242.166c1.528,1.274,4.084,1.821,6.557,2.352c1.024,0.22,2.571,0.551,2.947,0.776
		c0.384,0.256,0.917,0.651,1.554,1.121c1.82,1.344,4.57,3.375,7.161,4.671c2.348,1.174,4.974,1.667,7.12,1.667
		c1.144,0,2.151-0.14,2.907-0.392c1.055-0.352,1.876-1.152,2.669-1.927c0.655-0.64,1.47-1.435,2.019-1.477
		c0.481-0.037,1.12-0.112,1.863-0.201c2.517-0.302,6.321-0.756,8.873-0.177c2.001,0.454,4.213,0.003,6.222-1.274
		c2.453-1.561,4.263-4.084,4.842-6.751c0.939-4.319-0.814-9.665-0.89-9.891c-0.349-1.048-1.485-1.615-2.53-1.265
		c-1.048,0.35-1.614,1.482-1.265,2.53c0.416,1.245,1.364,5.071,0.776,7.775c-0.347,1.598-1.556,3.256-3.081,4.226
		c-1.101,0.7-2.234,0.968-3.188,0.749c-3.227-0.732-7.443-0.229-10.234,0.105c-0.677,0.08-1.258,0.15-1.695,0.185
		c-1.996,0.153-3.387,1.511-4.505,2.602c-0.368,0.359-0.924,0.902-1.141,0.995c-1.018,0.34-4.105,0.376-6.973-1.059
		c-2.282-1.141-4.763-2.973-6.574-4.311c-0.701-0.517-1.289-0.949-1.711-1.231c-0.909-0.606-2.237-0.911-4.328-1.359
		c-1.435-0.308-3.52-0.754-4.512-1.3c-0.094-2.089,2.293-9.438,4.747-15.417c0.419-1.022-0.069-2.19-1.091-2.61
		c-1.021-0.418-2.19,0.068-2.609,1.091C72.95,239.561,75.141,241.386,76.077,242.166z"/>
	<path fill="#040000" d="M80.285,187.659c-0.628-1.827-2.619-2.801-4.447-2.173c-0.116,0.04-11.676,3.977-19.481,3.977
		c-1.933,0-3.5,1.567-3.5,3.5s1.567,3.5,3.5,3.5c8.981,0,21.239-4.18,21.756-4.357C79.941,191.478,80.913,189.487,80.285,187.659z"
		/>
	<path fill="#040000" d="M62.038,184.567c2.65,0,5.668-0.187,8.093-0.338c1.545-0.096,3.004-0.187,3.763-0.187l0.184,0.002
		c1.128,0.037,4.453,1.208,6.851,2.28c0.457,0.204,0.943,0.305,1.428,0.305c0.702,0,1.4-0.211,1.995-0.624
		c1.007-0.698,1.576-1.871,1.499-3.094c-0.026-0.426-0.822-10.479-15.646-14.965c-2.273-0.688-4.686-1.037-7.169-1.037
		c-11.411,0-21.068,7.298-21.473,7.608c-1.23,0.942-1.694,2.581-1.141,4.028c0.553,1.447,1.991,2.356,3.538,2.24
		c1.616-0.129,5.211,1.051,8.071,1.957c1.704,0.539,3.312,1.048,4.68,1.375C57.992,184.424,59.685,184.567,62.038,184.567z
		 M53.539,175.878c2.423-0.955,5.247-1.746,8.216-1.928c0,1.059,0.148,2.317,0.624,3.611c-0.111,0.001-0.232,0.005-0.342,0.005
		c-2.283,0-3.298-0.161-3.699-0.257c-1.123-0.269-2.616-0.741-4.197-1.241C53.941,176.005,53.74,175.942,53.539,175.878z"/>
	<path fill="#040000" d="M72.224,165.665c3.5,2.159,6.886,4.947,7.248,5.967c0.291,0.82,1.062,1.332,1.885,1.332
		c0.222,0,0.448-0.037,0.669-0.116c1.041-0.369,1.585-1.513,1.216-2.554c-1.069-3.013-7.097-6.911-8.918-8.034
		c-0.94-0.579-2.172-0.286-2.751,0.653C70.992,163.854,71.284,165.086,72.224,165.665z"/>
	<path fill="#040000" d="M90.048,184.381c-2.542,4.853-4.639,7.57-4.656,7.591c-1.191,1.522-0.923,3.723,0.599,4.913
		c0.641,0.502,1.4,0.744,2.155,0.744c1.04,0,2.068-0.461,2.759-1.343c0.1-0.128,2.479-3.188,5.344-8.658
		c1.104-2.107,2.608-8.745-7.241-24.827c-1.009-1.649-3.164-2.168-4.812-1.157c-1.648,1.009-2.167,3.163-1.159,4.812
		C87.578,173.879,90.918,182.425,90.048,184.381z"/>
	<path fill="#040000" d="M110.397,197.631c0.298,0,0.601-0.038,0.903-0.119c1.868-0.497,2.979-2.414,2.482-4.282
		c-3.525-13.245,11.71-27.508,11.864-27.65c1.42-1.309,1.512-3.521,0.205-4.943c-1.308-1.424-3.522-1.518-4.945-0.208
		c-0.758,0.696-18.505,17.256-13.889,34.602C107.434,196.596,108.849,197.631,110.397,197.631z"/>
	<path fill="#040000" d="M317.476,346.395c-0.151,0.078-0.298,0.16-0.452,0.235C317.133,346.811,317.289,346.706,317.476,346.395z"
		/>
	<path fill="#040000" d="M25.524,329.63c0,0-0.511-0.544-1.338-1.536C24.615,328.716,25.061,329.24,25.524,329.63z"/>
	<path fill="#040000" d="M54.922,331.856c0.035,0.044,0.066,0.088,0.102,0.132C55.123,331.96,55.074,331.916,54.922,331.856z"/>
	<path fill="#040000" d="M345.774,314.38c-1.25-8.25-23.75-68.25-29.75-79.25s-22-72.75-23.5-82.25s-31.75-75.25-49.5-102
		s-65.75-39.25-80.808-43.25s-33.942,2.75-40.192,2.75s-12.75,9-14,10.5s-15.75,6.25-19.5,7.5s-6.5,4.25-13,5.802
		c-6.5,1.552-20.75,13.948-20.75,13.948s-7,6.75-16,16.75s-20,48.75-23.5,59s-8.5,27.75-10.5,33.5s7.25-3.25,7.25-3.25
		s0.25,2.25-0.5,6.75c-1.75,12.25,4,33.25,4,33.25s9.75,32,9.5,38.75s-7.75,33.25-13.5,54.5
		c-4.829,17.846,8.324,35.511,12.662,40.714c-3.968-5.76-6.412-20.214-6.412-20.214s0.75,2,3.39,4.5c7.89,7,18.61,23.25,18.61,23.25
		c1.052-2.404-2.446-9.59-5.406-14.944c7.024,8.33,19.104,10.595,20.554,11.17c-6.82-8.66-2.865-14.6-2.865-14.6
		c0.667,9.333,18.717,10.874,18.717,10.874c-1-2-2-12-2-12c2.5,5.5,12.5,17,12.5,17s-1-9,0.25-7.75c4,4,8.5,15.25,8.5,15.25
		c2-2.5,0.25-8.641,0.25-8.641l5.75,8.641c0.153-2.605-1.195-8.085-2.263-11.941c11.852,4.394,24.712,6.799,36.508,6.8
		c15.989,0,30.409-4.188,42.856-12.442c21.515-14.27,34.1-32.314,42.2-51.665c0.105,9.157,0.288,31.615-0.301,41.249
		c-0.75,12.25-19.357,28.093-21.25,28.5c10.5-1.75,19.25-11.75,19.25-11.75c1.5,13-12.75,22.5-12.75,22.5
		c5.25-2,16.75-7.25,16.75-7.25c-0.75,3,0.5,9.25-0.75,12s-1.5,7.5-1.5,7.5l22.75-8.5l0.75,7.5c-0.25,10.75,10.25,14.5,10.25,14.5
		c-1-1.5,3.139-11.994,3.25-13.25c-1.25,8.25,7.684,9.209,6.5,10.25c3.75-2.5,10.151-15.777,10.5-17c-2.75,9-0.75,14.25-0.75,14.25
		c-0.25-2,7.75-10.75,7.75-10.75c12.25-10,24.25-33.5,24.25-33.5c3,9.25-6,24-6,24c16-3,26.497-18.523,26.5-19.641
		c0.214,3.3-1.948,12.57-3.048,14.407c10.926-5.633,15.703-18.64,15.298-20.265c2.5,8-2,19-2,19
		C342.744,340.88,347.024,322.63,345.774,314.38z M145.935,179.274c0.076,1.647,0.424,3.595,1.391,5.335
		c-0.066-0.012-0.145-0.016-0.21-0.03c-2.43-0.509-5.027-0.814-7.585-0.896C141.604,181.855,143.84,180.234,145.935,179.274z
		 M162.083,179.51c1.518,0.352,2.778,0.728,3.687,1.052c0.252,0.288,0.568,0.634,0.967,1.057c-1.992,0.134-3.583,0.404-4.82,0.816
		c-0.292,0.097-0.575,0.178-0.865,0.27C161.525,181.764,161.899,180.696,162.083,179.51z M169.256,317.213
		c-11.28,7.482-24.397,11.276-38.987,11.276c-11.774-0.001-24.717-2.584-36.445-7.275c-5.324-2.13-16.524-17.938-23.936-28.397
		c-2.783-3.928-5.412-7.639-7.584-10.479c-8.345-10.913-24.003-53.276-28.46-66.647c-4.023-12.069,1.907-33.179,2.625-35.638
		c1.627-3.671,3.075-15.193,4.127-25.979c0.756,0.24,1.592,0.242,2.382-0.083c0.104-0.043,10.589-4.272,19.187-2.094
		c9.637,2.44,18.027,5.158,18.11,5.186c0.359,0.117,0.724,0.172,1.083,0.172c1.476,0,2.847-0.94,3.328-2.419
		c0.597-1.838-0.408-3.813-2.247-4.411c-0.35-0.114-8.684-2.814-18.556-5.314c-9.302-2.354-19.561,0.926-22.652,2.056
		c0.158-1.832,0.302-3.58,0.43-5.186c0.358-1.635,2.523-11.639,6.948-34.176c3.604-8.75,7.19-16.02,9.222-19.966
		c10.81,12.383,31.894,34.116,57.193,47.791c10.174,5.5,18.496,10.72,25.262,15.462c-7.161,1.307-11.607,3.162-11.981,3.322
		c-1.015,0.434-1.486,1.607-1.053,2.623c0.324,0.76,1.063,1.216,1.841,1.216c0.261,0,0.526-0.052,0.781-0.16
		c0.102-0.043,5.923-2.461,15.076-3.632c11.556,8.627,17.596,15.293,20.09,18.559c-3.581-0.944-8.31-1.718-13.438-1.718
		c-0.975,0-1.953,0.028-2.908,0.084c-9.808,0.577-19.717,13.059-20.814,14.48c-0.914,1.183-0.975,2.816-0.153,4.064
		c0.643,0.977,1.718,1.541,2.849,1.566c-0.427,0.369-0.78,0.834-0.993,1.399c-0.682,1.809,0.232,3.828,2.041,4.51
		c0.477,0.18,11.404,4.243,23.545,4.243c0.482,0,0.967-0.007,1.453-0.02c1.932-0.054,3.456-1.663,3.402-3.595
		c-0.053-1.933-1.665-3.452-3.595-3.403c-10.583,0.301-20.845-3.24-22.189-3.722c3.481-0.424,7.722-0.257,11.443,0.522
		c1.243,0.261,2.627,0.393,4.113,0.393c5.036,0,10.575-1.494,14.336-2.748c0.502-0.167,2.078-0.556,5.864-0.556
		c2.646,0,4.961,0.192,4.984,0.194c0.413,0.035,0.818-0.012,1.204-0.117c5.436,6.814,12.047,13.965,17.09,16.034l-6.25-10.5
		c0,0,4.25,6.5,10.75,9s18.75,8.75,18.75,8.75l-5-13.732c0,0,8.681,14.581,15.352,20.641c-0.723,4.478-1.517,7.756-2.249,10.003
		c-0.459-0.042-0.73-0.091-0.73-0.091c-1.892-0.395-3.74,0.825-4.133,2.717C213.226,262.916,202.583,295.109,169.256,317.213z"/>
	<path fill="#040000" d="M179.622,250.975c-1.812-0.678-3.827,0.242-4.503,2.054c-2.267,6.069-5.898,16.85-4.753,20.855
		c0.439,1.537,1.841,2.539,3.363,2.539c0.319,0,0.643-0.044,0.964-0.136c1.832-0.524,2.903-2.414,2.424-4.249
		c-0.238-1.963,2.155-10.122,4.56-16.561C182.352,253.667,181.432,251.651,179.622,250.975z"/>
</g>
</svg>
