<?xml version="1.0" encoding="utf-8"?>
<!-- Generator: Adobe Illustrator 17.1.0, SVG Export Plug-In . SVG Version: 6.00 Build 0)  -->
<!DOCTYPE svg PUBLIC "-//W3C//DTD SVG 1.1//EN" "http://www.w3.org/Graphics/SVG/1.1/DTD/svg11.dtd">
<svg version="1.1" id="レイヤー_1" xmlns="http://www.w3.org/2000/svg" xmlns:xlink="http://www.w3.org/1999/xlink" x="0px"
	 y="0px" viewBox="0 0 361.482 431.978" enable-background="new 0 0 361.482 431.978" xml:space="preserve">
<g>
	<path fill="#040000" d="M170.231,197.121c19.787,0.989,34.628,9.399,36.607,9.399s11.872-4.947,7.42-10.388
		c-4.452-5.442-23.745-11.378-41.059-10.388c-17.314,0.989-31.165,6.431-42.543,20.777
		C130.656,206.52,150.443,196.131,170.231,197.121z"/>
	<path fill="#040000" d="M137.977,248.766c0.875,1.166,2.212,1.781,3.565,1.781c0.929,0,1.867-0.29,2.668-0.891
		c0.104-0.078,10.502-7.762,21.386-6.087c0.69,0.106,1.365,0.043,1.989-0.15c1.945,0.432,3.969,0.697,6.108,0.697
		c9.658,0,21.989-4.47,29.989-10.869c1.92-1.536,2.231-4.338,0.695-6.258c-1.536-1.92-4.337-2.232-6.258-0.695
		c-6.459,5.167-16.732,8.918-24.427,8.918c-4.603,0-8.971-1.913-13.595-3.939c-1.724-0.755-3.492-1.519-5.323-2.219
		c3.416-0.544,7.164-1.221,9.701-1.913c0.853-0.233,2.192-0.346,4.093-0.346c1.513,0,3.217,0.071,5.022,0.145
		c2.089,0.086,4.25,0.176,6.482,0.176c3.964,0,7.117-0.29,9.921-0.914c4.206-0.935,7.782-1.131,10.041-1.131
		c2.282,0,3.651,0.196,3.651,0.196l0.336,0.052h0.341c2.494,0,4.549-1.487,5.113-3.7c1.042-4.086-3.184-6.391-5.455-7.629
		c-4.234-2.309-10.643-3.48-19.051-3.48c-3.084,0-6.355,0.163-9.721,0.483c-11.064,1.054-30.392,10.42-31.209,10.818l-6.126,2.984
		c-3.459-1.87-7.309-4.437-10.008-6.485c-1.957-1.487-4.75-1.106-6.237,0.851c-1.488,1.958-1.107,4.751,0.851,6.239
		c0.848,0.644,3.03,2.266,5.813,4.063l-8.405,4.095l8.089-1.011c-0.43,1.06-0.454,2.284,0.03,3.42
		c0.963,2.259,3.578,3.311,5.837,2.352c1.565-0.663,5.147-1.851,8.873-2.241c0.31,0.048,0.615,0.088,0.912,0.111
		c0.116,0.009,0.232,0.013,0.346,0.013c0.505,0,0.992-0.09,1.448-0.248c1.28,0.026,2.523,0.188,3.65,0.54
		c0.273,0.085,0.543,0.186,0.815,0.278c-6.388,2.309-10.752,5.529-11.063,5.762C136.9,244.008,136.502,246.799,137.977,248.766z"/>
	<path fill="#040000" d="M189.137,276.779c-0.05,0.225-5.252,22.578-23.764,34.317c-2.077,1.317-2.693,4.068-1.376,6.144
		c0.848,1.337,2.29,2.068,3.764,2.068c0.815,0,1.641-0.224,2.38-0.693c21.59-13.691,27.445-38.823,27.683-39.886
		c0.539-2.4-0.97-4.781-3.369-5.319C192.059,272.872,189.676,274.38,189.137,276.779z"/>
	<path fill="#040000" d="M173.554,385.284c-0.112-0.187-0.236-0.363-0.37-0.528c-0.974-1.53-4.185-6.648-14.505-23.274
		c-16.658-26.838-10.839-60.834-10.779-61.175c0.434-2.418-1.173-4.731-3.591-5.168c-2.42-0.437-4.736,1.171-5.172,3.59
		c-0.275,1.523-6.522,37.645,11.976,67.448c5.788,9.326,9.991,16.079,12.492,20.074c1.057,1.688,1.695,2.701,2.072,3.291
		c0.204,0.321,0.337,0.527,0.42,0.652c0.998,1.515,2.444,2.149,3.823,2.149c0.837,0,1.649-0.233,2.322-0.643
		c1.81-1.105,2.928-3.658,1.434-6.212L173.554,385.284z"/>
	<path fill="#040000" d="M285.866,303.284l-0.036-0.086c0.097,0.251,2.304,6.255-3.618,15.73
		c-7.776,12.442-9.438,20.97-9.505,21.327c-0.452,2.409,1.13,4.719,3.537,5.182c0.283,0.055,0.564,0.081,0.842,0.081
		c2.086,0,3.95-1.479,4.369-3.601c0.014-0.073,1.514-7.398,8.308-18.269c8.422-13.475,4.712-22.901,4.261-23.931L285.866,303.284z"
		/>
	<path fill="#040000" d="M256.801,330.191c-8.41,0.989-12.862,5.442-16.325,5.442c-3.463,0-7.915-3.957-18.303-4.452
		c-10.388-0.495-43.038-0.495-43.038-0.495s-10.883-0.989-3.957,3.463s21.272,21.766,39.575,29.187
		c18.303,7.42,26.713,0,39.575-12.862c12.862-12.862,18.798-23.25,18.798-23.25S265.211,329.202,256.801,330.191z M244.434,345.032
		c-8.904,2.968-15.335,0.989-26.218-0.989c-10.883-1.979-33.639-8.41-33.639-8.41s5.442,0,12.862,0
		c7.453,0,26.633,3.991,36.359,5.936c9.894,1.979,26.466-7.42,26.466-7.42S253.338,342.064,244.434,345.032z"/>
	<path fill="#040000" d="M342.422,133.851c-13.356-50.456-35.616-92.749-56.391-100.169c-20.776-7.42-46.746-17.066-62.327-17.066
		s-30.422-5.936-51.198-4.452c-20.776,1.484-63.069,7.42-92.749,32.648s-33.39,36.358-56.391,95.717S10.009,253.312,18.171,282.25
		c8.162,28.938,40.81,80.877,57.875,85.329c12.941,3.376,39.531,13.15,51.631,17.679c10.796,11.2,22.516,19.514,34.889,24.724
		c22.533,9.487,40.723,14.1,55.609,14.1c19.324,0,30.705-7.874,40.126-16.383c9.636-8.703,15.709-21.856,21.582-34.574
		c3.951-8.557,7.683-16.638,12.111-22.415c6.293-8.208,14.79-21.401,21.529-39.524c8.229-8.81,22.175-25.852,31.125-48.227
		C358.004,229.568,355.778,184.307,342.422,133.851z M284.928,345.291c-5.031,6.562-8.964,15.081-13.129,24.1
		c-5.498,11.906-11.182,24.217-19.466,31.7c-7.891,7.128-17.029,14.087-34.157,14.087c-13.676,0-30.735-4.384-52.153-13.402
		c-15.389-6.48-38.02-22.135-58.44-59.923c-12.389-22.926-18.089-43.312-18.145-43.513l-1.515,0.315c0-0.026-0.004-0.055-0.004-0.08
		c0-8.162,11.13-48.972,23.744-74.941c12.614-25.97,43.778-40.81,60.843-44.52c17.066-3.71,49.714-31.906,63.811-50.456
		c14.098-18.55,4.452-62.327,15.582-57.133c6.038,2.818,14.259,11.097,22.485,20.797c5.014,7.412,9.805,16.259,15.579,27.229
		c10.997,20.895,18.14,43.309,22.041,70.217c-1.253-1.171-2.81-2.079-4.745-2.54c-10.388-2.473-18.303,0.495-26.218,0.989
		c-7.915,0.495-18.798,3.957-19.787,10.388c0,0,1.979,8.904,13.357,4.452c11.378-4.452,25.724-5.936,33.144-4.452
		c2.428,0.486,4.27,1.342,5.654,2.275c1.161,10.763,1.857,22.249,2.127,34.611l-2.021-6.961c-0.143-0.491-1.507-4.926-5.459-9.381
		c-3.709-4.181-10.462-9.165-21.572-9.165c-19.43,0-27.168,2.144-31.844,8.825l-3.25,4.643c-3.529-12.787-6.07-20.442-6.193-20.811
		c-0.777-2.332-3.298-3.593-5.631-2.816c-2.333,0.777-3.593,3.299-2.816,5.631c0.034,0.103,3.477,10.474,7.835,26.94
		c4.961,18.743,14.655,34.397,19.601,40.692c2.55,3.245,3.039,6.092,2.646,7.674c-0.169,0.681-0.49,1.13-0.954,1.336
		c-0.807,0.359-1.584,0.666-2.406,0.991c-3.585,1.417-7.291,2.882-11.942,7.998c-2.828,3.112-13.073,2.648-19.231-0.871
		c-6.241-3.566-10.964-2.69-13.682-1.028c-4.715,0.059-7.814-0.988-9.222-3.143c-1.406-2.151-1.527-5.921-0.34-10.616
		c1.037-4.101,2.695-7.431,2.745-7.531c1.111-2.191,0.238-4.869-1.953-5.983c-2.192-1.115-4.872-0.242-5.986,1.951
		c-0.877,1.724-8.38,17.133-1.93,27.033c3.399,5.217,9.628,7.623,18.508,7.132l-0.243-4.445l3.38,2.898c0,0-0.218,0.217-0.259,0.264
		c-0.027,0.022-0.067,0.054-0.046,0.041c0.001,0,0.085-0.057,0.275-0.101c0.356-0.083,1.721-0.234,4.334,1.259
		c4.132,2.361,9.793,3.897,15.143,4.108c0.424,0.016,0.842,0.025,1.255,0.025c6.005,0,10.888-1.757,13.84-5.004
		c3.259-3.586,5.511-4.475,8.627-5.706c0.871-0.344,1.772-0.701,2.749-1.135c3.015-1.341,5.139-3.943,5.979-7.329
		c1.183-4.764-0.38-10.348-4.286-15.321c-4.213-5.362-13.396-20.093-17.995-37.469c-0.443-1.673-0.875-3.279-1.295-4.819
		l6.021,0.502c0.017,0.001,0.277,0.023,0.721,0.06c-0.399,0.216-0.773,0.496-1.103,0.843c-1.696,1.781-1.627,4.599,0.154,6.294
		c0.477,0.454,11.816,11.122,23.847,11.122c3.84,0,7.012-0.742,9.811-1.396c5.272-1.233,8.456-1.978,14.18,2.446
		c0.811,0.626,1.768,0.929,2.719,0.929c1.332,0,2.649-0.595,3.526-1.73c1.504-1.946,1.145-4.742-0.801-6.245
		c-9.074-7.012-15.757-5.449-21.652-4.071c-2.557,0.598-4.972,1.163-7.784,1.163c-7.011,0-15.161-6.258-17.712-8.67
		c-0.109-0.104-0.222-0.2-0.339-0.291c4.1,0.328,9.658,0.761,13.797,1.036c1.168,0.078,2.359,0.116,3.643,0.116h0
		c1.898,0,3.636-0.082,5.317-0.161c1.414-0.067,2.75-0.13,3.974-0.13c1.9,0,3.252,0.152,4.386,0.492
		c3.627,1.088,10.165,4.703,12.379,6.004l8.614,5.064c0.046,2.923,0.073,5.885,0.073,8.907
		C315.669,297.709,296.408,330.316,284.928,345.291z"/>
	<path fill="#040000" d="M215.366,215.419c0.191,0.349,4.615,8.671-0.839,19.578c-1.1,2.199-0.208,4.873,1.991,5.973
		c0.639,0.32,1.318,0.471,1.988,0.471c1.633,0,3.206-0.902,3.986-2.462c7.656-15.311,0.916-27.435,0.625-27.944
		c-1.22-2.135-3.949-2.894-6.084-1.674C214.898,210.582,214.146,213.284,215.366,215.419z"/>
</g>
</svg>
