<?xml version="1.0" encoding="utf-8"?>
<!-- Generator: Adobe Illustrator 17.1.0, SVG Export Plug-In . SVG Version: 6.00 Build 0)  -->
<!DOCTYPE svg PUBLIC "-//W3C//DTD SVG 1.1//EN" "http://www.w3.org/Graphics/SVG/1.1/DTD/svg11.dtd">
<svg version="1.1" id="レイヤー_1" xmlns="http://www.w3.org/2000/svg" xmlns:xlink="http://www.w3.org/1999/xlink" x="0px"
	 y="0px" viewBox="0 0 414 532" enable-background="new 0 0 414 532" xml:space="preserve">
<g>
	<path d="M270.168,395.437c-1.289,0-2.733,0.104-4.405,0.225c-2.14,0.154-4.566,0.33-7.298,0.33c-5.844,0-11.22-0.845-16.433-2.583
		c-3.954-1.318-9.115-1.986-15.34-1.986c-11.775,0-23.658,2.337-24.92,2.592c-0.003,0.001-0.007,0.001-0.01,0.002
		c-0.04,0.008-0.069,0.014-0.086,0.017l-14.769,3.031l14.481,4.138c1.738,0.59,7.953,6.096,12.065,9.74
		c9.007,7.981,15.244,13.312,19.694,14.647c7.262,2.179,24.624,5.331,37.02,5.331c14.114,0,19.562-22.5,20.137-25.066l0.615-2.745
		l-2.482-1.324C287.218,401.135,276.354,395.437,270.168,395.437z M258.465,403.384c2.999,0,5.678-0.193,7.83-0.349
		c1.529-0.11,2.849-0.206,3.872-0.206c0.39,0,0.846,0.052,1.343,0.14c-1.976,0.376-4.064,0.931-6.209,1.504
		c-3.324,0.888-6.761,1.806-9.161,1.806c-3.361,0-7.968-1.466-13.801-3.322c-3.578-1.138-7.633-2.429-12.344-3.697
		c-0.54-0.145-1.081-0.286-1.622-0.426c4.656,0.102,8.46,0.634,11.321,1.588C245.674,402.415,251.814,403.384,258.465,403.384z
		 M279.391,414.628c-3.592,7.356-6.998,8.9-9.223,8.9c-11.255,0-27.91-2.923-34.896-5.019c-3.223-0.967-11.137-7.979-16.916-13.099
		c-0.66-0.584-1.293-1.145-1.906-1.685c3.684,0.728,7.709,1.62,11.624,2.674c4.55,1.225,8.521,2.489,12.025,3.603
		c6.444,2.05,11.534,3.67,16.042,3.67c3.37,0,7.284-1.045,11.069-2.056c3.445-0.92,7.35-1.964,9.354-1.677
		c1.687,0.241,3.294,0.249,4.747,0.13C280.789,411.501,280.152,413.069,279.391,414.628z"/>
	<path d="M189.351,262.842l2.685,3.223c6.615,7.938,15.543,13.685,26.536,17.083c9.187,2.839,17.97,3.435,23.721,3.435
		c4.438,0,7.263-0.352,7.381-0.367l2.809-0.357l0.387-2.805c0.069-0.501,0.619-5.062-1.348-10.727
		c-0.728-2.097-1.871-4.506-3.658-6.932c0.351-0.151,0.685-0.355,0.987-0.621c1.531-1.35,1.678-3.685,0.329-5.217
		c-8.768-9.949-21.084-13.762-35.614-11.03c-10.604,1.994-18.63,6.778-18.966,6.981c-1.68,1.012-2.262,3.147-1.371,4.864
		c-0.181,0.11-0.303,0.186-0.343,0.212L189.351,262.842z M223.562,271.264c-1.511,1.648-3.88,2.341-6.753,1.977
		c-5.062-0.642-5.481-6.563-5.514-7.675c0.272-3.375,0.505-4.789,7.545-5.56c0.478-0.052,0.933-0.079,1.355-0.079
		c2.453,0,4.525,0.477,5.034,6.335C225.388,268.083,224.764,269.953,223.562,271.264z M204.144,263.269
		c-0.099,0.596-0.179,1.222-0.232,1.887l-0.012,0.295c0,0.601,0.042,1.276,0.133,1.998c-1.176-0.931-2.235-1.858-3.174-2.757
		C201.813,264.24,202.922,263.753,204.144,263.269z M242.293,279.189c-5.554,0-10.52-0.519-14.954-1.397
		c0.598-0.461,1.157-0.971,1.672-1.532c2.617-2.854,3.923-6.731,3.583-10.638c-0.106-1.22-0.284-2.327-0.518-3.339
		c10.711,4.709,13.02,12.581,13.445,16.835C244.605,279.16,243.519,279.189,242.293,279.189z"/>
	<path d="M344.628,271.167c-0.228-0.159-5.667-3.909-13.463-5.234c-7.32-1.243-18.164-0.563-28.257,9.745
		c-1.181,1.207-1.366,3.015-0.569,4.413c-3.08,2.928-4.968,5.772-5.634,6.853c0-9.641,0.005-21.622,3.303-26.805
		c1.096-1.722,0.588-4.007-1.134-5.103c-1.723-1.096-4.007-0.588-5.103,1.134c-4.459,7.007-4.459,19.655-4.459,30.814
		c0,10.397,4.405,48.975,6.718,61.123c1.533,8.047-0.677,11.487-1.39,12.349c-0.528,0.639-1.123,1.005-1.632,1.005
		c-3.494,0-5.965,1.604-8.581,3.302c-2.006,1.302-4.28,2.778-7.761,4.17c-1.724,0.689-3.127,0.852-3.953,0.456
		c-0.692-0.331-1.006-1.096-1.075-1.286l-0.049-0.271l-0.223-0.447c-0.166-0.331-4.16-8.137-13.379-10.772
		c-6.456-1.845-12.109,1.176-15.328,3.573c-1.896-2.115-2.854-4.32-2.916-6.685c-0.159-6.143,5.758-11.58,5.838-11.652
		c1.515-1.36,1.644-3.691,0.287-5.211c-1.359-1.523-3.696-1.656-5.219-0.295c-0.348,0.31-8.513,7.713-8.297,17.295
		c0.122,5.39,2.769,10.23,7.869,14.385l2.681,2.162l2.359-2.508c0.052-0.055,5.259-5.508,10.695-3.955
		c5.359,1.531,8.138,5.84,8.693,6.785c0.423,1.207,1.664,3.914,4.658,5.444c1.367,0.699,2.866,1.048,4.487,1.048
		c1.737,0,3.614-0.401,5.618-1.202c4.153-1.661,6.977-3.495,9.04-4.833c2.255-1.463,3.304-2.11,4.557-2.11
		c2.759,0,5.361-1.309,7.327-3.684c1.964-2.374,4.961-7.927,2.957-18.445c-1.493-7.841-3.875-26.861-5.329-41.831
		c2.3,2.074,5.939,4.937,10.547,7.176c4.844,2.354,9.711,3.528,14.499,3.528c6.033,0,11.94-1.864,17.512-5.579
		c1.699-1.132,2.158-3.427,1.025-5.126c-1.132-1.699-3.427-2.158-5.126-1.025c-7.736,5.158-15.972,5.712-24.48,1.649
		c-6.707-3.204-11.118-8.166-11.162-8.216c-0.923-1.054-2.314-1.457-3.592-1.171c-0.117-1.499-0.215-2.895-0.292-4.162l1.152,0.559
		c9.993,4.854,18.611,7.315,25.615,7.315c9.723,0,14.718-4.625,17.195-8.505c2.606-4.081,2.936-8.101,2.966-8.546l0.134-2.039
		l-1.655-1.198c-4.122-2.982-8.222-5.092-12.263-6.332c5.882,1.002,10.023,3.776,10.369,4.014c1.673,1.16,3.97,0.749,5.137-0.922
		C346.711,274.64,346.301,272.336,344.628,271.167z M318.583,279.592c0.729,0,3.106,0.375,3.106,5.202
		c0,1.62-0.599,2.954-1.78,3.964c-1.224,1.047-2.935,1.623-4.82,1.623c-0.778,0-1.568-0.1-2.346-0.298
		c-3.908-0.995-4.999-3.024-5.208-3.505c-0.076-0.746,0.486-1.636,1.518-2.552c0.601-0.485,1.244-0.959,1.929-1.408
		c1.62-1.005,3.707-1.965,6.038-2.724c0.429-0.112,0.867-0.209,1.314-0.291C318.419,279.597,318.502,279.592,318.583,279.592z
		 M326.714,292.212c1.539-2.116,2.368-4.669,2.368-7.418c0-1.536-0.188-2.974-0.536-4.292c2.447,0.824,4.959,2.07,7.522,3.736
		C335.313,286.855,333.108,291.163,326.714,292.212z"/>
	<path d="M336.252,89.611c-31.047-31.047-72.629-41.581-79.282-38.809c0,0-15.524-16.078-31.602-14.969
		c0,0-27.721-2.772-46.017,2.772c-18.296,5.544-16.078-3.881-36.592,6.653c-20.513,10.534-11.088,4.435-31.602,22.731
		C90.646,86.284,57.38,126.202,57.38,126.202s-21.622,11.643-26.058,71.52s-12.197,73.738-3.326,97.023
		c8.871,23.286,39.918,59.877,52.67,72.074c12.752,12.197,18.85,14.969,18.85,14.969l-9.98-19.959l20.079,25.92
		c12.092,33.005,26.014,57.098,41.474,71.73c18.77,17.765,34.753,29.562,48.861,36.065c12.099,5.577,20.774,6.346,28.345,6.346
		c6.008,0,17.697-0.607,28.473-4.673c12.983-4.899,21.025-13.223,23.904-24.74c6.091-24.364,17.371-44.256,25.896-54.749
		c10.166-12.512,32.675-56.454,38.994-71.9c3.944-9.641,4.013-19.576,4.087-30.095c0.015-2.153,0.031-4.326,0.083-6.512
		c10.512-18.89,37.954-70.656,39.744-99.301C391.694,174.437,367.3,120.658,336.252,89.611z M344.454,289.63
		c-2.078,9.005-2.138,17.67-2.197,26.05c-0.068,9.785-0.133,19.027-3.537,27.348c-6.744,16.485-28.847,58.909-37.889,70.038
		c-9.026,11.109-20.946,32.079-27.331,57.618c-5.373,21.493-33.404,23.813-45.205,23.813c-10.293,0-29.452,0-72.124-40.387
		c-15.324-14.503-29.701-40.347-41.793-75.023c-5.465-23.757-12.288-61.412-7.655-86.005c7.207-38.255,23.286-71.52,36.592-85.38
		c13.306-13.86,17.187-15.524,17.187-15.524s-7.762,22.731-7.762,33.819l2.772-3.327c0,0-4.435,17.187-7.762,20.513l12.197-5.544
		l-5.544,11.088c0,0,31.602-19.405,46.571-39.364c14.969-19.959,46.017-79.836,46.017-79.836s-8.316,59.323-37.7,82.608
		c-29.384,23.286-29.384,23.286-29.384,23.286s26.058,0.554,38.255-3.327c12.197-3.881,19.959-7.762,19.959-7.762l-24.949,14.969
		c0,0,38.809,4.99,55.442-1.109c16.633-6.099,51.006-29.939,59.877-50.452c8.871-20.513,8.871-28.275,8.871-28.275
		s7.994,30.485,0.261,46.854c2.659-4.942,8.47-16.312,10.868-25.493c-3,16.96-13.147,60.45-40.514,78.988
		c0,0,31.602-17.741,41.027-33.265c4.63-7.625,7.653-15.383,9.532-21.304c0.411,8.009,0.103,16.53-0.927,25.522
		c-1.861,13.253-4.501,26.376-8.051,31.819l3.297-5.055c-1.822,7.84-3.785,14.925-5.441,20.905
		C346.202,282.815,345.155,286.594,344.454,289.63z"/>
	<path d="M337.622,206.321c-0.843,1.567-1.37,2.489-1.37,2.489C336.757,208.026,337.211,207.193,337.622,206.321z"/>
	<path d="M195.784,283.618c11.446,7.595,23.423,11.502,35.061,11.502c2.635,0,5.254-0.201,7.844-0.604
		c2.017-0.314,3.398-2.204,3.084-4.221c-0.314-2.017-2.207-3.396-4.221-3.084c-12.292,1.913-24.91-1.329-37.508-9.64
		c-9.616-6.343-15.578-13.402-15.637-13.473c-1.308-1.565-3.638-1.775-5.203-0.469c-1.568,1.307-1.779,3.638-0.471,5.206
		C178.996,269.154,185.323,276.678,195.784,283.618z"/>
	<circle cx="164.35" cy="423.528" r="4.066"/>
	<circle cx="163.98" cy="439.423" r="4.066"/>
	<circle cx="184.31" cy="438.683" r="4.066"/>
	<circle cx="183.571" cy="457.165" r="4.066"/>
	<circle cx="196.138" cy="469.732" r="4.066"/>
	<circle cx="200.574" cy="455.317" r="4.066"/>
	<circle cx="219.055" cy="456.056" r="4.066"/>
	<circle cx="213.88" cy="470.102" r="4.066"/>
	<circle cx="220.903" cy="484.148" r="4.066"/>
	<circle cx="234.21" cy="476.016" r="4.066"/>
	<circle cx="235.688" cy="462.34" r="4.066"/>
	<circle cx="250.843" cy="458.274" r="4.066"/>
	<circle cx="259.345" cy="467.514" r="4.066"/>
	<circle cx="250.104" cy="477.125" r="4.066"/>
	<circle cx="269.325" cy="452.729" r="4.066"/>
</g>
</svg>
