<?xml version="1.0" encoding="utf-8"?>
<!-- Generator: Adobe Illustrator 17.1.0, SVG Export Plug-In . SVG Version: 6.00 Build 0)  -->
<!DOCTYPE svg PUBLIC "-//W3C//DTD SVG 1.1//EN" "http://www.w3.org/Graphics/SVG/1.1/DTD/svg11.dtd">
<svg version="1.1" id="レイヤー_1" xmlns="http://www.w3.org/2000/svg" xmlns:xlink="http://www.w3.org/1999/xlink" x="0px"
	 y="0px" viewBox="0 0 334.483 443.978" enable-background="new 0 0 334.483 443.978" xml:space="preserve">
<g>
	<path d="M146.032,241.347c0.698,0.498,1.502,0.738,2.298,0.738c1.236,0,2.453-0.576,3.226-1.658
		c8.243-11.54,8.433-22.101,7.142-28.928c-1.411-7.456-4.874-12.207-5.021-12.405c-1.295-1.752-3.755-2.12-5.514-0.835
		c-1.759,1.285-2.143,3.759-0.868,5.525c0.425,0.589,10.264,14.615-2.183,32.04C143.84,237.602,144.252,240.076,146.032,241.347z"/>
	<path d="M185.014,240.647c0.514,0,1.037-0.101,1.541-0.314c2.014-0.852,2.956-3.176,2.104-5.19
		c-7.064-16.696-0.169-31.786-0.07-31.998c0.936-1.971,0.101-4.329-1.868-5.271c-1.975-0.943-4.338-0.109-5.281,1.864
		c-0.355,0.741-8.583,18.381-0.075,38.491C182.004,239.74,183.47,240.647,185.014,240.647z"/>
	<path d="M98.614,349.902c-0.726-1.371-1.536-2.835-2.395-4.384c-4.426-7.99-11.114-20.065-8.916-26.714
		c0.645-1.951,2.048-3.361,4.415-4.437c16.989-7.723,26.74-29.126,27.146-30.033c0.895-1.995,0.002-4.338-1.993-5.233
		c-1.995-0.895-4.338-0.002-5.233,1.993c-0.087,0.195-8.903,19.565-23.197,26.063c-4.396,1.998-7.309,5.081-8.658,9.162
		c-3.285,9.94,3.808,22.746,9.508,33.036c0.84,1.516,1.633,2.948,2.323,4.252c6.376,12.043,12.839,24.961,12.903,25.09
		c0.694,1.387,2.092,2.19,3.545,2.19c0.595,0,1.199-0.135,1.768-0.419c1.956-0.978,2.749-3.357,1.771-5.313
		C111.536,375.025,105.034,362.029,98.614,349.902z"/>
	<path d="M229.069,293.486c-12.866-5.79-21.677-22.349-21.845-22.668c-1.008-1.94-3.399-2.694-5.34-1.686
		c-1.128,0.586-1.851,1.64-2.064,2.8c-2.956-5.281-5.952-9.411-6.588-10.271c-1.3-1.759-3.78-2.13-5.538-0.831
		c-1.759,1.3-2.131,3.78-0.831,5.538c0.029,0.04,2.948,4.002,5.852,9.128c3.61,6.371,5.599,11.743,5.599,15.128
		c0,1.831-0.431,3.13-1.317,3.971c-0.733,0.696-1.759,1.068-2.671,1.257c-1.951-2.806-5.825-7.03-11.471-7.03
		c-5.196,0-8.512,3.073-11.439,5.785c-1.408,1.304-2.737,2.536-4.19,3.367c-1.904,1.088-6.067,0.102-8.891-1.073
		c-0.671-1.138-1.79-2.929-3.171-4.73c-3.582-4.673-6.992-6.944-10.424-6.944c-6.828,0-10.664,3.27-14.307,6.913
		c-0.058,0.058-0.096,0.085-0.1,0.092c-0.095-0.01-0.446-0.121-0.918-0.586c-0.537-0.53-2.29-2.638-2.29-7.493
		c0-7.705,9.531-13.829,9.654-13.907c1.848-1.161,2.409-3.6,1.251-5.452c-1.159-1.854-3.602-2.418-5.457-1.259
		c-0.546,0.341-13.368,8.495-13.368,20.618c0,7.328,3.111,13.351,7.924,15.345c3.164,1.31,6.492,0.654,8.904-1.757
		c3.239-3.24,5.165-4.594,8.675-4.595c1.451,0.194,5.08,4.502,7.326,8.693l0.594,1.114l1.129,0.565
		c0.768,0.384,5.877,2.834,11.169,2.834c2.139,0,4.308-0.401,6.231-1.499c2.24-1.28,4.049-2.956,5.644-4.434
		c2.532-2.346,4.062-3.674,6.056-3.674c2.651,0,5.15,3.717,5.808,5.003l1.009,2.018l2.251,0.16
		c0.637,0.045,6.321,0.332,10.446-3.509c1.763-1.641,3.864-4.672,3.864-9.79c0-3.049-0.89-6.483-2.205-9.895
		c4.251,6.239,11.835,15.499,21.791,19.979c12.228,5.503,13.071,25.041,10.094,33.972c-2.741,8.223-17.5,26.21-22.956,32.446
		c-1.44,1.646-1.273,4.147,0.373,5.587c0.751,0.657,1.68,0.98,2.606,0.98c1.102,0,2.199-0.458,2.982-1.353
		c2.115-2.416,20.77-23.937,24.51-35.156c2.195-6.586,2.477-15.461,0.735-23.162C241.929,304.155,236.569,296.861,229.069,293.486z"
		/>
	<path d="M234.962,335.718l-6.75-2.736c-2.797-1.134-27.63-11.077-38.166-11.077c-8.962,0-21.352,2.631-25.035,3.461
		c-3.212-0.93-13.075-3.506-23.801-3.506c-4.9,0-9.387,0.546-13.335,1.623c-15.426,4.207-28.249,6.365-28.377,6.387l-2.912,0.486
		l-0.366,2.929c-0.167,1.332-0.427,8.423,10.832,17.269l0.473,0.373c10.122,7.957,28.963,22.768,50.158,22.768
		c19.051,0,25.052-3.794,37.009-11.352c1.436-0.907,2.967-1.876,4.63-2.905c15.024-9.3,29.528-19.439,29.673-19.541L234.962,335.718
		z M187.667,340.967c-1.781,0.822-3.478,1.666-5.12,2.481c-7.022,3.49-13.086,6.504-22.707,6.504
		c-6.676,0-12.076-2.129-17.794-4.383c-4.41-1.738-8.97-3.536-14.046-4.213c-2.16-0.288-4.141-0.815-5.911-1.455
		c3.824-0.441,8.164-0.955,12.351-1.478c1.976-0.247,4.118-0.372,6.367-0.372c5.016,0,9.768,0.594,13.96,1.118
		c3.104,0.388,5.785,0.723,7.949,0.723c3.162,0,7.761-0.868,12.63-1.787c4.71-0.889,9.58-1.809,12.541-1.809
		c1.911,0,5.36,0.452,9.192,1.076C193.776,338.457,190.465,339.676,187.667,340.967z"/>
	<path d="M313.098,102.148c-10.822-26.637-26.672-49.072-42.401-60.014c-16.937-11.782-42.145-20.711-74.924-26.538
		c-32.292-5.742-52.057-0.334-67.938,4.011l-1.4,0.382c-10.199,2.782-17.234,7.477-26.14,13.42
		c-5.673,3.786-12.103,8.077-20.749,12.818c-24.411,13.387-53.126,52.363-63.629,78.97c-10.285,26.054-9.175,57.138-8.364,79.834
		c0.064,1.783,0.125,3.51,0.179,5.172c0.381,11.814,3.52,24.496,7.619,35.782c-0.427,3.588-0.429,6.873-0.429,10.117
		c0,8.895,1.48,25.386,4.656,32.533c0.868,1.952,1.739,5.164,2.661,8.565c2.102,7.749,4.274,15.761,8.724,18.94
		c4.17,2.979,13.495,9.231,16.86,11.481c1.942,6.855,10.499,35.653,21.074,50.194l0.47,0.647
		c11.992,16.493,34.314,47.193,53.937,53.985c12.796,4.43,24.219,6.492,35.949,6.492c11.841,0,23.527-2.128,35.726-6.507
		c32.923-11.818,63.203-64.173,66.547-70.104c7.516-13.33,12.277-28.86,13.808-34.254c5.104-2.365,17.752-10.25,22.152-31.619
		c0.416-2.022,0.828-4.006,1.231-5.948c0.055-0.267,0.11-0.528,0.164-0.793c4.988-9.211,11.875-21.633,16-27.821
		c6.399-9.598,7.544-28.13,8.555-44.48c0.233-3.767,0.453-7.326,0.727-10.607c0.483-5.799,0.273-12.997-0.233-20.079l3.175,7.792
		l1.374-16.481C329.3,168.183,322.401,125.047,313.098,102.148z M87.486,225.108c4.231-0.003,8.502-0.086,12.28-0.159
		c3.294-0.064,6.405-0.124,9.012-0.124c6.42,0,12.884,0.181,17.722,0.361c-12.123,4.458-19.49,3.307-27.248,2.093
		c-2.629-0.412-5.347-0.837-8.206-1.016c-1.234-0.077-2.396-0.107-3.493-0.099C87.578,225.801,87.555,225.447,87.486,225.108z
		 M110.217,206.117c-9.6,0-14.093,2.099-18.851,4.32c-2.696,1.259-5.484,2.558-9.635,3.581c-7.056-0.196-11.608-5.03-11.721-5.152
		c-1.455-1.618-3.946-1.76-5.575-0.311c-1.635,1.453-1.782,3.956-0.329,5.59c0.065,0.073,0.474,0.524,1.193,1.173
		c-1.924-0.193-3.019-0.451-3.026-0.453l-2.212,7.598c1.919,0.64,4.193,1.155,6.905,1.555c-6.606,2.017-11.52,4.687-11.876,4.883
		c-0.266,0.146-0.505,0.32-0.723,0.514c2.119-8.623,4.299-15.083,5.628-18.689c0.329-0.893,0.665-1.745,1.006-2.571l10.192-9.554
		c0.086-0.079,8.851-7.864,26.923-7.864c1.952,0,3.971,0.091,6.001,0.27c5.406,0.477,10.158,1.023,14.351,1.505
		c0.577,0.066,1.139,0.131,1.693,0.194c0.325,1.373,0.537,2.247,0.593,2.481l3.154,13.011
		C119.945,206.813,115.399,206.117,110.217,206.117z M252.937,218.482c-0.504-0.137-1.011-0.168-1.499-0.111
		c-1.045-0.396-2.127-0.816-3.274-1.262c-2.095-0.815-4.413-1.716-7.021-2.663l2.118-15.13c6.451,3.07,10.067,7.392,11.156,8.848
		l2.179,8.65l1.643-2.796l2.45,3.785C258.887,218.628,256.149,219.358,252.937,218.482z M86.093,151.483
		c0.93-5.557,1.808-10.806,3.429-15.668c2.64-7.921,11.862-17.995,17.68-23.799c0.924,4.809,1.932,11.848,1.932,19.67
		c0,8.157,3.127,24.941,6.139,39.214c-11.928,0.104-24.238,0.675-32.997,3.803c-0.944,0.337-1.844,0.75-2.708,1.213
		C83.351,167.823,84.746,159.528,86.093,151.483z M124.601,148.227L124.601,148.227L124.601,148.227
		C124.601,148.227,124.601,148.227,124.601,148.227z M228.208,196.039c2.729,0.001,5.231,0.28,7.517,0.755
		c0.006,0.045,0.012,0.09,0.018,0.134l2.156,16.373c-2.601-0.892-5.464-1.808-8.649-2.718c-1.453-0.415-2.905-0.74-4.35-0.985
		L228.208,196.039z M220.869,195.958l2.69,13.438c-1.592-0.212-3.173-0.323-4.733-0.323c-2.244,0-4.345,0.221-6.309,0.594
		l1.82-14.559C216.364,195.502,218.535,195.801,220.869,195.958z M262.98,216.422c-0.052,0.044-0.455,0.375-1.14,0.781l0.177-9.611
		l1.805-3.07c1.073,3.514,2.14,7.3,3.18,11.197C265.678,215.203,264.125,215.419,262.98,216.422z M29.883,295.129
		c-1.004-3.703-1.953-7.201-3.068-9.709c-1.884-4.24-3.148-13.617-3.683-21.593c2.136,4.118,4.256,7.658,6.179,10.382
		c8.049,11.403,13.684,38.514,13.74,38.786c0.104,0.509,0.302,0.975,0.572,1.384c0.045,0.242,0.09,0.479,0.137,0.721
		c0.019,0.098,0.045,0.193,0.07,0.288c-3.14-2.128-6.317-4.302-8.263-5.692C33.417,308.161,31.204,300.003,29.883,295.129z
		 M268.2,324.15c-0.049,0.189-5.021,19.123-13.572,34.289c-2.491,4.419-11.632,20.055-24.643,35.735
		c-13.359,16.099-26.389,26.751-37.681,30.805c-11.325,4.065-22.136,6.041-33.05,6.041c-10.821,0-21.421-1.924-33.358-6.056
		c-17.271-5.979-39.459-36.494-50.122-51.159l-0.471-0.647c-10.941-15.044-20.145-48.71-20.236-49.049l-0.389-1.435l-1.237-0.825
		c-0.054-0.036-2.332-1.555-5.321-3.565c0.09-0.011,0.181-0.021,0.272-0.038c2.148-0.41,3.557-2.485,3.146-4.633
		c-6.01-31.437-2.577-60.151,1.79-79.766c0.058,0.144,0.123,0.287,0.2,0.427c0.72,1.313,2.076,2.055,3.476,2.055
		c0.643,0,1.295-0.157,1.899-0.487c0.092-0.051,6.5-3.516,14.012-5.227l4.597,5.516c0,0-0.03,0.029-0.095,0.076
		c0.036-0.026,3.718-2.633,13.135-2.043c2.492,0.156,4.913,0.535,7.476,0.936c3.681,0.576,7.565,1.185,12.043,1.185
		c6.255,0,13.665-1.188,23.282-5.309c2.01-0.861,2.941-3.189,2.08-5.2c-0.028-0.066-0.062-0.127-0.093-0.19l6.735,0.374
		l-4.047-6.476c-2.47-3.952-5.612-7.01-9.467-9.199v-16.73c1.542,0.115,2.95,0.182,4.227,0.182c2.147,0,3.874-0.189,5.322-0.589
		l1.238,2.559v-2.987c0.428-0.177,0.837-0.372,1.217-0.599c1.742-1.042,3.817-3.139,3.817-7.216c0-5.701-1.857-9.099-4.923-11.119
		c0.426-9.857,2.012-22.784,3.388-32.618c7.855,18.967,21.396,50.006,23.434,54.672l3.235,7.406l3.87-7.095
		c3.764-6.901,5.822-37.07,6.619-51.81c1.031,1.235,2.305,2.947,3.84,5.318c3.153,4.873,7.551,13.909,11.637,22.857
		c-2.579,2.307-3.46,5.594-3.635,8.561l-0.09,1.536l0.971,1.194c0.242,0.298,3.803,4.571,11.226,7.994
		c1.557,3.667,2.532,6.027,2.569,6.119l4.928,11.966c-11.396,2.549-17.71,10.271-18.023,10.662l-5.147,6.434h6.869
		c-0.053,0.105-0.104,0.212-0.149,0.324c-0.812,2.03,0.175,4.335,2.206,5.147c0.763,0.305,18.819,7.475,30.238,7.475
		c2.643,0,5.211-0.123,7.695-0.242c7.494-0.36,13.965-0.67,18.946,2.5c0.659,0.419,1.395,0.619,2.122,0.619
		c1.309,0,2.59-0.648,3.345-1.834c1.174-1.845,0.63-4.293-1.215-5.467c-7.103-4.52-15.477-4.117-23.578-3.729
		c-2.39,0.115-4.862,0.233-7.315,0.233c-6.524,0-16.237-2.974-22.147-5.02c5.989,0.066,22.934,0.773,35.913,2.823
		c4.233,0.668,8.743,1.007,13.403,1.007c7.926,0,13.558-0.977,13.793-1.019l-0.62-7.082c0.212-0.165,0.348-0.28,0.382-0.31
		c0.166-0.145,0.313-0.304,0.449-0.469c1.704,6.741,3.293,13.563,4.655,19.69l-3.353,31.18l6.107-18.318
		c0.659,3.209,1.161,5.763,1.464,7.379c1.656,8.829-1.514,29.45-2.875,36.651l-4.353,23.026l-1.504,0.458L268.2,324.15z
		 M270.879,321.357l-0.318,0.097l13.696-24.349l2.638,7.035C281.111,317.887,271.345,321.206,270.879,321.357z"/>
	<path d="M183.766,406.837c-19.261,7.337-51.52-1.962-51.921-2.079c-2.099-0.617-4.299,0.583-4.917,2.681
		c-0.617,2.098,0.583,4.3,2.681,4.917c1.004,0.295,18.014,5.215,35.599,5.215c7.407,0,14.919-0.874,21.376-3.333
		c2.044-0.778,3.07-3.066,2.291-5.11C188.097,407.084,185.809,406.058,183.766,406.837z"/>
</g>
</svg>
